<svg width="1206" height="799" viewBox="0 0 1206 799" fill="none" xmlns="http://www.w3.org/2000/svg">
    <mask id="path-1-inside-1_0_1" fill="white">
        <path
            d="M423.214 566.369L423.675 563.065L423.867 559.837L422.753 552.729L422.868 550.808L423.714 549.54L426.212 548.003L427.173 546.889L430.671 539.819L431.862 536.015L432.208 531.903L431.593 529.559L430.555 527.254L429.671 524.949V522.413L437.743 515.381L451.733 509.464L462.15 501.625L459.536 488.984L463.802 486.947L466.301 485.41L467.607 483.259L468.222 479.416L467.838 475.804L466.839 473.96L466.647 472.039L468.76 468.197L474.795 462.779L480.138 463.278L485.672 466.467L492.206 469.195L497.972 468.927L500.893 466.083L503.776 456.785L506.466 452.827L509.387 452.673L512.731 453.211L516.613 451.213L517.074 449.522L517.728 443.183L518.189 441.031L520.072 438.149L522.801 435.037L525.838 432.347L528.682 430.618L534.37 429.811L544.325 431.617L548.707 429.581L549.745 427.775L550.783 423.433L551.936 421.742L553.473 421.127L555.203 421.05L557.009 421.127L558.585 420.858L582.838 408.755L587.95 405.642L598.404 400.609L608.782 399.379L619.506 401.07L631.075 404.797L635.533 401.954L643.067 402.031L651.292 402.799L657.942 402.069L661.285 399.725L667.205 393.424L670.587 391.157L674.584 390.311L736.158 386.776L751.071 388.006L752.148 383.126L755.415 380.283L759.489 378.131L762.948 375.441L764.524 372.905L765.831 369.908L773.556 345.394L775.747 336.134L777.169 326.297L777.477 243.225L756.414 248.527L744.268 249.257L737.042 244.762L736.966 241.649L738.618 238.844L740.732 236.232L742.001 233.619L741.962 229.431L741.078 224.243L739.502 219.287L737.427 215.829L733.66 213.331L728.894 211.871L719.439 210.027L714.634 208.144L711.29 205.646L708.177 202.957L704.18 200.382L698.684 198.653L693.687 198.038L688.844 196.924L683.963 193.735L683.117 192.467L682.002 189.355L681.08 187.933L678.658 186.242L672.778 183.86L670.241 182.246L667.358 178.442L666.628 174.946L666.397 171.334L664.975 167.069L661.67 163.534L447.044 12.5664L382.357 12.6049L417.103 336.595L417.795 339.63L418.948 342.397L420.831 345.548L422.638 347.699L424.559 349.697L426.212 351.772L427.173 354.155L426.865 359.995L423.253 378.054L421.254 382.703L416.603 383.818L298.759 383.549L286.19 381.704L281.732 375.826L279.349 377.708L278.273 380.091L277.427 382.511L275.813 384.548L271.124 386.392L264.82 387.199L258.401 387.276L253.289 386.968L240.798 384.625L236.57 385.009L233.034 387.237L226.653 394.269L224.347 395.768L216.622 391.464L210.395 383.28L203.861 378.285L195.29 383.741L192.023 391.695L188.563 402.376L183.298 409.946L174.727 408.678L177.071 412.828L177.686 416.977L177.955 421.166L179.147 425.508L182.529 431.848L183.605 434.768L184.336 439.225L184.72 440.339L186.142 442.721L186.411 443.874L186.065 444.95L184.72 447.448L184.451 448.178L184.989 455.056L186.219 458.552L188.794 461.472L189.717 462.279L191.139 463.816L192.138 464.431L193.675 463.009L195.136 462.241L196.866 462.395L199.133 464.316L200.94 467.236L205.86 478.917L206.321 481.414L206.244 492.442L206.513 495.401L207.282 499.012L204.591 504.891L205.475 509.694L209.242 512.384L215.315 511.846L218.812 509.656L220.773 507.543L222.848 507.005L226.653 509.579L228.345 511.923L229.536 514.651L231.035 516.841L233.572 517.61L235.724 516.303L239.914 510.54L241.835 508.542L244.91 507.197L247.524 506.889L250.214 507.312L261.092 510.117L266.511 511.039L271.546 509.771L278.234 505.122L280.041 503.354L280.54 502.317L280.733 501.318L281.578 499.704L281.886 498.09L281.617 496.63L282.616 495.823L286.652 496.054L293.224 499.627L296.952 506.428L302.718 526.14L303.756 527.907L305.908 530.251L314.095 535.4L315.555 536.745L314.479 540.664L310.674 544.506L307.676 548.233L308.906 551.845L310.866 551.922L313.48 550.846L316.363 550.424L319.168 552.46L319.86 554.727V557.609L319.591 560.567V563.103L320.59 567.253L322.051 569.712L326.663 574.4L328.854 576.244L330.776 577.512L331.814 579.241L331.352 582.469L336.234 580.471L343.69 572.94L348.725 572.21L352.377 574.438L355.913 578.012L359.91 581.124L364.907 582.008L367.252 581.239L368.597 579.818L369.98 577.858L372.325 575.476L374.208 574.784L376.092 575.053L377.937 575.13L379.628 573.939L379.743 572.095L379.09 569.443L378.705 566.754L379.551 564.756L381.012 564.871L385.701 567.253L388.045 567.714L388.968 566.984L388.699 565.563L388.622 564.026L390.006 562.911L394.387 563.065L395.809 566.177L396.002 570.865L396.616 575.668V577.436L395.925 578.281L396.002 579.011L398.308 580.433L400.883 581.239L402.612 580.74L412.798 573.824L416.411 572.402L421.446 572.671L422.445 569.635L423.214 566.369Z" />
    </mask>
    <path
        d="M423.214 566.369L423.675 563.065L423.867 559.837L422.753 552.729L422.868 550.808L423.714 549.54L426.212 548.003L427.173 546.889L430.671 539.819L431.862 536.015L432.208 531.903L431.593 529.559L430.555 527.254L429.671 524.949V522.413L437.743 515.381L451.733 509.464L462.15 501.625L459.536 488.984L463.802 486.947L466.301 485.41L467.607 483.259L468.222 479.416L467.838 475.804L466.839 473.96L466.647 472.039L468.76 468.197L474.795 462.779L480.138 463.278L485.672 466.467L492.206 469.195L497.972 468.927L500.893 466.083L503.776 456.785L506.466 452.827L509.387 452.673L512.731 453.211L516.613 451.213L517.074 449.522L517.728 443.183L518.189 441.031L520.072 438.149L522.801 435.037L525.838 432.347L528.682 430.618L534.37 429.811L544.325 431.617L548.707 429.581L549.745 427.775L550.783 423.433L551.936 421.742L553.473 421.127L555.203 421.05L557.009 421.127L558.585 420.858L582.838 408.755L587.95 405.642L598.404 400.609L608.782 399.379L619.506 401.07L631.075 404.797L635.533 401.954L643.067 402.031L651.292 402.799L657.942 402.069L661.285 399.725L667.205 393.424L670.587 391.157L674.584 390.311L736.158 386.776L751.071 388.006L752.148 383.126L755.415 380.283L759.489 378.131L762.948 375.441L764.524 372.905L765.831 369.908L773.556 345.394L775.747 336.134L777.169 326.297L777.477 243.225L756.414 248.527L744.268 249.257L737.042 244.762L736.966 241.649L738.618 238.844L740.732 236.232L742.001 233.619L741.962 229.431L741.078 224.243L739.502 219.287L737.427 215.829L733.66 213.331L728.894 211.871L719.439 210.027L714.634 208.144L711.29 205.646L708.177 202.957L704.18 200.382L698.684 198.653L693.687 198.038L688.844 196.924L683.963 193.735L683.117 192.467L682.002 189.355L681.08 187.933L678.658 186.242L672.778 183.86L670.241 182.246L667.358 178.442L666.628 174.946L666.397 171.334L664.975 167.069L661.67 163.534L447.044 12.5664L382.357 12.6049L417.103 336.595L417.795 339.63L418.948 342.397L420.831 345.548L422.638 347.699L424.559 349.697L426.212 351.772L427.173 354.155L426.865 359.995L423.253 378.054L421.254 382.703L416.603 383.818L298.759 383.549L286.19 381.704L281.732 375.826L279.349 377.708L278.273 380.091L277.427 382.511L275.813 384.548L271.124 386.392L264.82 387.199L258.401 387.276L253.289 386.968L240.798 384.625L236.57 385.009L233.034 387.237L226.653 394.269L224.347 395.768L216.622 391.464L210.395 383.28L203.861 378.285L195.29 383.741L192.023 391.695L188.563 402.376L183.298 409.946L174.727 408.678L177.071 412.828L177.686 416.977L177.955 421.166L179.147 425.508L182.529 431.848L183.605 434.768L184.336 439.225L184.72 440.339L186.142 442.721L186.411 443.874L186.065 444.95L184.72 447.448L184.451 448.178L184.989 455.056L186.219 458.552L188.794 461.472L189.717 462.279L191.139 463.816L192.138 464.431L193.675 463.009L195.136 462.241L196.866 462.395L199.133 464.316L200.94 467.236L205.86 478.917L206.321 481.414L206.244 492.442L206.513 495.401L207.282 499.012L204.591 504.891L205.475 509.694L209.242 512.384L215.315 511.846L218.812 509.656L220.773 507.543L222.848 507.005L226.653 509.579L228.345 511.923L229.536 514.651L231.035 516.841L233.572 517.61L235.724 516.303L239.914 510.54L241.835 508.542L244.91 507.197L247.524 506.889L250.214 507.312L261.092 510.117L266.511 511.039L271.546 509.771L278.234 505.122L280.041 503.354L280.54 502.317L280.733 501.318L281.578 499.704L281.886 498.09L281.617 496.63L282.616 495.823L286.652 496.054L293.224 499.627L296.952 506.428L302.718 526.14L303.756 527.907L305.908 530.251L314.095 535.4L315.555 536.745L314.479 540.664L310.674 544.506L307.676 548.233L308.906 551.845L310.866 551.922L313.48 550.846L316.363 550.424L319.168 552.46L319.86 554.727V557.609L319.591 560.567V563.103L320.59 567.253L322.051 569.712L326.663 574.4L328.854 576.244L330.776 577.512L331.814 579.241L331.352 582.469L336.234 580.471L343.69 572.94L348.725 572.21L352.377 574.438L355.913 578.012L359.91 581.124L364.907 582.008L367.252 581.239L368.597 579.818L369.98 577.858L372.325 575.476L374.208 574.784L376.092 575.053L377.937 575.13L379.628 573.939L379.743 572.095L379.09 569.443L378.705 566.754L379.551 564.756L381.012 564.871L385.701 567.253L388.045 567.714L388.968 566.984L388.699 565.563L388.622 564.026L390.006 562.911L394.387 563.065L395.809 566.177L396.002 570.865L396.616 575.668V577.436L395.925 578.281L396.002 579.011L398.308 580.433L400.883 581.239L402.612 580.74L412.798 573.824L416.411 572.402L421.446 572.671L422.445 569.635L423.214 566.369Z"
        fill="#56C087" stroke="white" stroke-width="0.4" mask="url(#path-1-inside-1_0_1)" />
    <mask id="path-2-inside-2_0_1" fill="white">
        <path
            d="M145.243 621.776L147.088 619.202L149.971 615.743L152.277 613.976L154.66 612.669L157.005 611.133L159.311 608.635L160.272 607.175L164.884 598.068L167.037 594.649L170.073 592.266L174.839 591.075L178.068 591.152L180.912 591.575L183.948 591.844L187.792 591.344L188.176 590.883L188.215 590.115L188.445 589.269L189.368 588.731L191.02 588.539L194.518 588.655L202.897 588.386L208.163 588.731L212.698 590.422L217.272 594.303L226.228 604.063L230.571 609.711L233.069 614.783L232.877 616.512L230.955 620.085L230.725 621.968L231.493 622.66L234.607 623.774L235.683 624.773L235.952 626.118L235.683 629.038L235.875 630.383L238.412 636.3L237.874 637.875L231.993 650.017L236.721 650.171L243.485 645.022L247.675 644.484L250.634 643.831L252.748 644.561L254.286 645.676L255.554 646.214L258.937 645.214L262.588 643.678L265.701 643.255L267.661 645.637L272.082 646.29L274.964 650.594L280.73 671.535L281.037 674.493L280.461 677.952L279.423 680.411L278.885 682.409L279.807 684.637L280.999 685.098L289.762 690.324L292.376 690.631L295.105 690.132L297.641 688.941L299.794 687.327L302.907 682.217L305.444 676.645L308.519 674.225L313.246 678.643L316.744 677.145L319.55 677.375L322.202 677.183L325.161 674.34L326.238 671.958L328.582 664.58L329.082 662.121L329.236 659.316L329.005 658.279L328.352 657.664L327.275 656.165L325.085 654.283L322.24 652.553L320.664 650.094L322.317 646.021L327.314 643.716L333.464 645.138L339.114 647.481L342.381 647.904L343.841 643.601L341.074 639.528L334.386 633.995L333.041 630.652L333.271 627.271L335.27 624.35L339.114 622.506L336.231 619.816L334.963 617.28L334.732 614.283L334.809 610.095L329.62 610.556L326.968 607.674L325.969 602.948L325.7 592.843L326.468 589.308L328.236 586.234L331.35 582.468L331.811 579.241L330.773 577.512L328.851 576.244L326.66 574.399L322.048 569.712L320.588 567.253L319.588 563.103V560.567L319.857 557.608V554.726L319.165 552.459L316.36 550.423L313.477 550.845L310.863 551.921L308.903 551.845L307.673 548.233L310.671 544.506L314.476 540.663L315.552 536.744L314.092 535.399L305.905 530.25L303.753 527.906L302.715 526.139L296.95 506.428L293.221 499.627L286.649 496.053L282.613 495.822L281.614 496.629L281.883 498.09L281.575 499.703L280.73 501.317L280.537 502.316L280.038 503.354L278.231 505.121L271.543 509.77L266.508 511.038L261.089 510.116L250.212 507.311L247.521 506.889L244.907 507.196L241.833 508.541L239.911 510.539L235.721 516.302L233.569 517.609L231.032 516.84L229.533 514.65L228.342 511.922L226.65 509.578L222.845 507.004L220.77 507.542L218.81 509.655L215.312 511.845L209.239 512.383L205.472 509.694L204.588 504.891L207.279 499.012L200.168 498.128L192.712 498.589L178.106 500.51L171.418 500.395L165.576 499.089L153.353 495.323H152.162L150.24 495.592L148.51 495.938L148.011 496.245L147.011 495.016L146.435 493.248L146.204 491.711L146.281 491.135L140.785 489.598L134.289 489.022L121.836 488.906L122.336 492.288L123.373 495.669L123.796 499.089L122.605 502.431L120.798 503.699L116.455 504.314L114.956 505.467L115.456 509.04L118.915 512.537L122.067 516.648L121.798 522.105L119.03 524.948L115.033 526.139L106.116 527.023L102.58 527.791L99.3511 528.79L86.821 533.708L84.9377 535.207L82.4778 538.319L80.2869 542.123L76.4434 549.962L73.8682 553.574L73.9835 558.453L75.6362 557.57L77.827 554.419L79.5567 552.536L82.6315 553.497L84.7071 556.225L87.2054 562.911L90.2803 560.029L90.2034 568.175L93.3936 574.553L98.8899 579.587L105.731 583.698L106.961 583.967L109.575 583.506L110.574 583.736L111.189 584.697L112.073 587.656L112.996 588.885L115.609 590.883L118.185 592.42L120.76 592.766L123.258 591.152L124.219 598.337V601.949L123.22 605.676L128.754 606.868L133.982 611.709L137.479 618.049L137.787 623.659L142.745 623.313L145.243 621.776Z" />
    </mask>
    <path
        d="M145.243 621.776L147.088 619.202L149.971 615.743L152.277 613.976L154.66 612.669L157.005 611.133L159.311 608.635L160.272 607.175L164.884 598.068L167.037 594.649L170.073 592.266L174.839 591.075L178.068 591.152L180.912 591.575L183.948 591.844L187.792 591.344L188.176 590.883L188.215 590.115L188.445 589.269L189.368 588.731L191.02 588.539L194.518 588.655L202.897 588.386L208.163 588.731L212.698 590.422L217.272 594.303L226.228 604.063L230.571 609.711L233.069 614.783L232.877 616.512L230.955 620.085L230.725 621.968L231.493 622.66L234.607 623.774L235.683 624.773L235.952 626.118L235.683 629.038L235.875 630.383L238.412 636.3L237.874 637.875L231.993 650.017L236.721 650.171L243.485 645.022L247.675 644.484L250.634 643.831L252.748 644.561L254.286 645.676L255.554 646.214L258.937 645.214L262.588 643.678L265.701 643.255L267.661 645.637L272.082 646.29L274.964 650.594L280.73 671.535L281.037 674.493L280.461 677.952L279.423 680.411L278.885 682.409L279.807 684.637L280.999 685.098L289.762 690.324L292.376 690.631L295.105 690.132L297.641 688.941L299.794 687.327L302.907 682.217L305.444 676.645L308.519 674.225L313.246 678.643L316.744 677.145L319.55 677.375L322.202 677.183L325.161 674.34L326.238 671.958L328.582 664.58L329.082 662.121L329.236 659.316L329.005 658.279L328.352 657.664L327.275 656.165L325.085 654.283L322.24 652.553L320.664 650.094L322.317 646.021L327.314 643.716L333.464 645.138L339.114 647.481L342.381 647.904L343.841 643.601L341.074 639.528L334.386 633.995L333.041 630.652L333.271 627.271L335.27 624.35L339.114 622.506L336.231 619.816L334.963 617.28L334.732 614.283L334.809 610.095L329.62 610.556L326.968 607.674L325.969 602.948L325.7 592.843L326.468 589.308L328.236 586.234L331.35 582.468L331.811 579.241L330.773 577.512L328.851 576.244L326.66 574.399L322.048 569.712L320.588 567.253L319.588 563.103V560.567L319.857 557.608V554.726L319.165 552.459L316.36 550.423L313.477 550.845L310.863 551.921L308.903 551.845L307.673 548.233L310.671 544.506L314.476 540.663L315.552 536.744L314.092 535.399L305.905 530.25L303.753 527.906L302.715 526.139L296.95 506.428L293.221 499.627L286.649 496.053L282.613 495.822L281.614 496.629L281.883 498.09L281.575 499.703L280.73 501.317L280.537 502.316L280.038 503.354L278.231 505.121L271.543 509.77L266.508 511.038L261.089 510.116L250.212 507.311L247.521 506.889L244.907 507.196L241.833 508.541L239.911 510.539L235.721 516.302L233.569 517.609L231.032 516.84L229.533 514.65L228.342 511.922L226.65 509.578L222.845 507.004L220.77 507.542L218.81 509.655L215.312 511.845L209.239 512.383L205.472 509.694L204.588 504.891L207.279 499.012L200.168 498.128L192.712 498.589L178.106 500.51L171.418 500.395L165.576 499.089L153.353 495.323H152.162L150.24 495.592L148.51 495.938L148.011 496.245L147.011 495.016L146.435 493.248L146.204 491.711L146.281 491.135L140.785 489.598L134.289 489.022L121.836 488.906L122.336 492.288L123.373 495.669L123.796 499.089L122.605 502.431L120.798 503.699L116.455 504.314L114.956 505.467L115.456 509.04L118.915 512.537L122.067 516.648L121.798 522.105L119.03 524.948L115.033 526.139L106.116 527.023L102.58 527.791L99.3511 528.79L86.821 533.708L84.9377 535.207L82.4778 538.319L80.2869 542.123L76.4434 549.962L73.8682 553.574L73.9835 558.453L75.6362 557.57L77.827 554.419L79.5567 552.536L82.6315 553.497L84.7071 556.225L87.2054 562.911L90.2803 560.029L90.2034 568.175L93.3936 574.553L98.8899 579.587L105.731 583.698L106.961 583.967L109.575 583.506L110.574 583.736L111.189 584.697L112.073 587.656L112.996 588.885L115.609 590.883L118.185 592.42L120.76 592.766L123.258 591.152L124.219 598.337V601.949L123.22 605.676L128.754 606.868L133.982 611.709L137.479 618.049L137.787 623.659L142.745 623.313L145.243 621.776Z"
        fill="#56C087" stroke="white" stroke-width="0.4" mask="url(#path-2-inside-2_0_1)" />
    <path
        d="M345.781 781.331L345.78 781.339L345.779 781.348L345.549 789.148L345.548 789.163L345.552 789.178L347.507 796.242L336.953 793.973L326.012 789.637L296.003 773.465L287.248 767.554L253.698 739.086L253.698 739.085L253.689 739.079L244.926 733.162L244.926 733.161L244.919 733.157L235.237 727.703L231.06 724.83L224.764 718.19L224.758 718.184L224.751 718.179L220.6 715.067L220.6 715.066L220.592 715.061L211.371 709.531L207.305 706.501L203.08 702.655L206.314 699.348L206.314 699.348L206.322 699.337L212.2 691.387L215.497 687.708L228.79 676.877L228.797 676.872L228.803 676.865L232.493 672.561L232.5 672.553L232.505 672.544L234.427 668.97L234.427 668.971L234.431 668.961L237.618 661.207L239.795 657.695L240.999 656.792L243.984 655.606L244.001 655.599L244.015 655.587L245.36 654.357L245.374 654.344L245.383 654.327L246.421 652.175L246.425 652.167L246.427 652.158L247.119 649.583L247.12 649.583L247.122 649.57L247.766 644.568L250.629 643.936L252.703 644.652L254.228 645.757L254.237 645.764L254.248 645.769L255.516 646.307L255.549 646.321L255.583 646.31L258.966 645.311L258.966 645.312L258.976 645.308L262.615 643.776L265.66 643.362L267.585 645.702L267.61 645.731L267.648 645.737L272.024 646.384L274.873 650.637L280.632 671.554L280.937 674.491L280.365 677.925L279.332 680.373L279.331 680.372L279.327 680.386L278.789 682.384L278.78 682.417L278.793 682.448L279.716 684.677L279.732 684.716L279.772 684.732L280.956 685.19L289.712 690.411L289.73 690.422L289.751 690.424L292.365 690.732L292.38 690.733L292.395 690.731L295.124 690.231L295.136 690.229L295.148 690.223L297.685 689.032L297.694 689.028L297.702 689.022L299.855 687.408L299.87 687.396L299.88 687.38L302.993 682.27L302.994 682.27L302.999 682.259L305.526 676.71L308.514 674.357L313.168 678.707L318.991 688.817L319.488 698.916L315.811 708.603L308.903 717.236L308.823 717.335L308.939 717.389L311.241 718.463L317.387 721.996L317.394 722L317.402 722.003L320.477 723.156L320.476 723.157L320.489 723.16L329.28 725.193L332.827 726.948L334.69 728.962L336.107 731.45L336.106 731.45L336.111 731.456L338.225 734.569L338.231 734.578L338.24 734.586L340.738 736.891L340.748 736.901L340.761 736.907L346.366 739.709L349.261 741.766L351.969 746.874L352.351 753.758L351.239 761.08L347.359 773.868L347.359 773.868L347.357 773.876L345.781 781.331Z"
        fill="#56C087" stroke="white" stroke-width="0.2" />
    <mask id="path-4-inside-3_0_1" fill="white">
        <path
            d="M510.424 767.941L509.425 769.401L504.582 768.479L505.889 767.595L507.196 767.403L510.386 767.979L510.424 767.941ZM520.264 765.751L521.916 762.6L522.378 758.22L521.417 753.109L519.149 750.42L516.19 748.345L513.115 745.04L508.925 736.126L505.85 724.829L504.659 713.341L506.158 703.85L508.31 699.508L512.846 691.785L514.46 687.212L516.651 676.377L518.265 671.036L520.917 666.233L526.759 659.124L528.258 656.704L529.181 655.513L529.988 655.013L530.641 654.283L531.18 652.285V649.288L528.989 638.952L527.643 634.648L523.8 625.849L522.839 622.622L522.916 619.548L524.684 607.675L520.302 608.712L515.844 604.332L511.577 598.223L507.695 594.034L500.316 591.537L491.937 591.153L483.442 592.344L475.717 594.611L471.297 596.609L467.684 598.568L464.186 600.067L460.15 600.643L456.922 600.029L453.501 598.492L450.195 596.455L443.93 591.806L442.547 590.538L441.163 588.886L440.087 586.734L438.242 581.47L436.858 579.472L432.899 577.435L428.71 576.667L424.712 575.591L421.368 572.671L416.333 572.402L412.72 573.823L402.573 580.74L400.805 581.239L398.269 580.432L395.962 579.011L395.885 578.281L396.577 577.435V575.668L395.962 570.903L395.809 566.216L394.386 563.065L390.005 562.911L388.621 564.025L388.698 565.562L388.929 566.984L388.006 567.714L385.662 567.253L380.934 564.871L379.512 564.755L378.628 566.754L379.051 569.443L379.704 572.094L379.589 573.939L377.898 575.13L376.053 575.053L374.169 574.823L372.286 575.476L369.941 577.858L368.558 579.818L367.212 581.239L364.868 582.046L359.871 581.162L355.874 578.05L352.338 574.477L348.686 572.248L343.651 572.978L336.195 580.509L331.313 582.507L328.2 586.311L326.432 589.385L325.702 592.92L325.932 603.026L326.97 607.752L329.622 610.672L334.811 610.211L334.734 614.361L334.965 617.358L336.195 619.894L339.116 622.583L335.234 624.428L333.274 627.309L333.043 630.691L334.388 634.034L341.076 639.528L343.805 643.601L342.383 647.905L339.077 647.482L333.466 645.138L327.278 643.716L322.281 646.022L320.667 650.095L322.204 652.554L325.048 654.283L327.239 656.166L328.315 657.703L328.93 658.318L329.161 659.355L329.046 662.16L328.546 664.581L326.201 671.996L325.125 674.379L322.166 677.184L319.514 677.376L316.708 677.145L313.21 678.682L319.014 688.788L319.514 698.97L315.785 708.653L308.905 717.337L311.211 718.412L317.361 721.947L320.398 723.1L329.199 725.137L332.774 726.904L334.657 728.941L336.079 731.438L338.193 734.589L340.692 736.856L346.303 739.661L349.224 741.736L351.953 746.885L352.338 753.839L351.223 761.178L347.341 773.935L345.765 781.428L345.535 789.189L347.533 796.451L353.299 794.991L369.595 786.384L413.604 771.668L425.519 769.362L438.203 767.902L435.551 767.019L432.822 766.75L427.057 767.172L431.323 764.867L435.859 765.174L440.433 766.558L444.814 767.518L452.348 767.364L475.601 764.252L470.989 762.907H465.454L454.731 764.06L461.419 761.178L468.914 761.255L492.628 767.211L497.817 767.787L501.738 767.095L503.506 765.097L504.198 762.715L505.197 760.717L507.926 759.949L507.349 763.023L508.233 765.366L510.155 766.98L512.73 767.941L517.15 767.633L520.148 765.828L520.264 765.751Z" />
    </mask>
    <path
        d="M510.424 767.941L509.425 769.401L504.582 768.479L505.889 767.595L507.196 767.403L510.386 767.979L510.424 767.941ZM520.264 765.751L521.916 762.6L522.378 758.22L521.417 753.109L519.149 750.42L516.19 748.345L513.115 745.04L508.925 736.126L505.85 724.829L504.659 713.341L506.158 703.85L508.31 699.508L512.846 691.785L514.46 687.212L516.651 676.377L518.265 671.036L520.917 666.233L526.759 659.124L528.258 656.704L529.181 655.513L529.988 655.013L530.641 654.283L531.18 652.285V649.288L528.989 638.952L527.643 634.648L523.8 625.849L522.839 622.622L522.916 619.548L524.684 607.675L520.302 608.712L515.844 604.332L511.577 598.223L507.695 594.034L500.316 591.537L491.937 591.153L483.442 592.344L475.717 594.611L471.297 596.609L467.684 598.568L464.186 600.067L460.15 600.643L456.922 600.029L453.501 598.492L450.195 596.455L443.93 591.806L442.547 590.538L441.163 588.886L440.087 586.734L438.242 581.47L436.858 579.472L432.899 577.435L428.71 576.667L424.712 575.591L421.368 572.671L416.333 572.402L412.72 573.823L402.573 580.74L400.805 581.239L398.269 580.432L395.962 579.011L395.885 578.281L396.577 577.435V575.668L395.962 570.903L395.809 566.216L394.386 563.065L390.005 562.911L388.621 564.025L388.698 565.562L388.929 566.984L388.006 567.714L385.662 567.253L380.934 564.871L379.512 564.755L378.628 566.754L379.051 569.443L379.704 572.094L379.589 573.939L377.898 575.13L376.053 575.053L374.169 574.823L372.286 575.476L369.941 577.858L368.558 579.818L367.212 581.239L364.868 582.046L359.871 581.162L355.874 578.05L352.338 574.477L348.686 572.248L343.651 572.978L336.195 580.509L331.313 582.507L328.2 586.311L326.432 589.385L325.702 592.92L325.932 603.026L326.97 607.752L329.622 610.672L334.811 610.211L334.734 614.361L334.965 617.358L336.195 619.894L339.116 622.583L335.234 624.428L333.274 627.309L333.043 630.691L334.388 634.034L341.076 639.528L343.805 643.601L342.383 647.905L339.077 647.482L333.466 645.138L327.278 643.716L322.281 646.022L320.667 650.095L322.204 652.554L325.048 654.283L327.239 656.166L328.315 657.703L328.93 658.318L329.161 659.355L329.046 662.16L328.546 664.581L326.201 671.996L325.125 674.379L322.166 677.184L319.514 677.376L316.708 677.145L313.21 678.682L319.014 688.788L319.514 698.97L315.785 708.653L308.905 717.337L311.211 718.412L317.361 721.947L320.398 723.1L329.199 725.137L332.774 726.904L334.657 728.941L336.079 731.438L338.193 734.589L340.692 736.856L346.303 739.661L349.224 741.736L351.953 746.885L352.338 753.839L351.223 761.178L347.341 773.935L345.765 781.428L345.535 789.189L347.533 796.451L353.299 794.991L369.595 786.384L413.604 771.668L425.519 769.362L438.203 767.902L435.551 767.019L432.822 766.75L427.057 767.172L431.323 764.867L435.859 765.174L440.433 766.558L444.814 767.518L452.348 767.364L475.601 764.252L470.989 762.907H465.454L454.731 764.06L461.419 761.178L468.914 761.255L492.628 767.211L497.817 767.787L501.738 767.095L503.506 765.097L504.198 762.715L505.197 760.717L507.926 759.949L507.349 763.023L508.233 765.366L510.155 766.98L512.73 767.941L517.15 767.633L520.148 765.828L520.264 765.751Z"
        fill="#56C087" stroke="white" stroke-width="0.4" mask="url(#path-4-inside-3_0_1)" />
    <path
        d="M722.066 665.124L722.066 665.124L722.067 665.134L724.718 681.687L724.757 691.665L721.844 722.317L702.054 724.345L702.054 724.345L702.046 724.346L682.91 727.784L685.28 726.375L685.281 726.375L685.287 726.371L686.978 725.18L686.994 725.169L687.004 725.153L687.811 723.923L687.833 723.89L687.826 723.851L687.326 721.084L687.323 721.064L687.312 721.048L685.698 718.55L685.698 718.55L685.69 718.54L683.772 716.239L682.324 714.03L681.484 710.594L680.601 703.261L680.599 703.249L680.595 703.237L679.162 699.543L682.291 697.245L682.324 697.22L682.33 697.179L683.214 691.493L683.216 691.483L683.215 691.474L681.294 627.652L681.293 627.639L681.289 627.626L680.059 623.591L680.056 623.581L680.051 623.572L675.212 614.896L673.566 610.149L672.914 605.206L672.299 595.142L672.299 595.134L672.297 595.125L671.105 590.13L671.101 590.113L671.091 590.098L668.939 586.908L668.93 586.895L668.918 586.886L665.651 584.311L665.651 584.311L665.644 584.307L654.587 576.899L652.608 574.503L651.313 571L651.237 565.998L652.653 561.177L654.612 556.417L654.612 556.417L654.614 556.409L656.103 551.678L657.522 550.745L661.006 549.673L661.006 549.674L661.015 549.67L661.937 549.286L661.964 549.275L661.981 549.25L662.75 548.136L662.758 548.124L662.763 548.11L663.107 547.039L663.559 545.985L671.072 538.474L673.511 536.797L677.672 535.576L685.806 535.538L685.806 535.539L685.817 535.537L690.967 534.961L690.977 534.96L690.987 534.957L697.406 532.882L697.418 532.878L697.429 532.871L702.618 529.528L702.63 529.52L702.64 529.509L706.829 524.629L706.836 524.621L706.841 524.612L710.454 518.003L710.462 517.988L710.465 517.971L711.311 512.745L711.314 512.727L711.31 512.708L710.621 509.574L710.922 507.17L714.569 504.056L724.042 500.491L725.964 499.963L730.222 501.749L734.241 505.346L741.232 513.257L741.237 513.262L741.243 513.267L751.765 522.02L754.305 525.469L751.703 535.336L751.695 535.366L751.706 535.395L755.319 545.27L755.318 545.271L755.324 545.282L760.584 555.376L763.036 565.945L761.744 570.806L759.125 572.778L756.096 574.427L756.072 574.44L756.058 574.463L753.636 578.459L753.621 578.485L753.622 578.516L753.737 580.975L753.738 580.99L753.743 581.003L754.662 583.607L755.08 586.569L753.752 590.059L751.82 591.952L747.57 593.866L747.56 593.871L747.552 593.877L745.553 595.337L745.538 595.348L745.528 595.363L744.49 596.977L744.489 596.977L744.484 596.989L739.756 606.979L739.752 606.987L739.75 606.996L737.983 613.6L736.566 617.466L735.199 619.555L733.255 621.003L730.303 622.919L724.927 625.645L724.901 625.658L724.886 625.683L723.695 627.681L723.684 627.698L723.681 627.718L722.99 632.482L722.989 632.482L722.989 632.492L721.759 659.273L721.758 659.273L721.759 659.283L722.066 665.124Z"
        fill="#56C087" stroke="white" stroke-width="0.2" />
    <mask id="path-6-inside-4_0_1" fill="white">
        <path
            d="M655.633 723.369L652.097 719.949L649.406 716.683L647.1 713.071L644.871 708.691L643.525 705.387L643.295 703.427L645.678 692.784L645.755 690.901L645.37 688.749L644.755 687.174L644.14 685.906L643.718 684.715L643.295 683.792L642.526 682.64L641.757 681.256L641.373 679.566L641.834 677.299L644.294 671.881L645.063 669.345L645.178 665.848L644.64 658.778L644.871 655.244L645.601 653.822L646.754 652.708L647.83 651.478L648.215 649.787L646.216 645.445L638.606 638.836L636.722 634.379L637.337 633.841L640.105 629.999L640.835 628.654L641.066 626.502L640.989 618.28L642.18 613.016L642.026 610.672L640.182 608.482L638.49 607.982L636.684 608.328L635.223 608.866L634.455 609.02L633.109 607.944L632.341 606.599L632.917 604.985L635.646 603.141L633.84 601.527L634.032 598.76L635.146 595.226L635.992 591.268L636.415 582.507L635.8 579.395L634.147 576.282L630.88 573.17L622.232 566.676L619.926 563.103L620.502 558.915L622.463 554.727L623.308 550.731L620.618 547.042L616.121 546.273L612.777 546.389L609.856 547.388L602.783 551.576L600.439 552.498L597.941 552.383L593.713 551.614L581.375 550.462L543.631 551.653L523.99 550.615L519.801 551.422L516.841 556.225L516.995 561.95L520.377 572.017L521.761 579.894L522.837 598.568L524.682 607.675L522.914 619.548L522.837 622.622L523.798 625.888L527.68 634.648L529.025 638.99L531.178 649.326L531.216 652.323L530.678 654.283L530.024 655.051L529.217 655.513L528.295 656.704L526.796 659.124L520.954 666.233L518.34 671.036L516.687 676.377L514.496 687.212L512.882 691.785L508.347 699.508L506.194 703.85L504.695 713.302L505.887 724.791L508.962 736.049L513.151 744.963L516.226 748.268L519.186 750.343L521.453 753.032L522.414 758.143L521.953 762.561L520.262 765.712L517.302 767.518L512.882 767.825L510.422 767.941L509.423 769.362L529.602 773.666L534.252 775.472L544.054 780.236L548.435 781.312L553.124 780.275L567 771.783L572.419 769.67L589.139 765.136L599.632 760.794L620.041 749.92L630.803 745.732L635.8 745.002L646.024 745.155L651.059 744.617L656.094 742.312L662.09 735.396L666.472 732.668L664.358 730.17L655.633 723.369Z" />
    </mask>
    <path
        d="M655.633 723.369L652.097 719.949L649.406 716.683L647.1 713.071L644.871 708.691L643.525 705.387L643.295 703.427L645.678 692.784L645.755 690.901L645.37 688.749L644.755 687.174L644.14 685.906L643.718 684.715L643.295 683.792L642.526 682.64L641.757 681.256L641.373 679.566L641.834 677.299L644.294 671.881L645.063 669.345L645.178 665.848L644.64 658.778L644.871 655.244L645.601 653.822L646.754 652.708L647.83 651.478L648.215 649.787L646.216 645.445L638.606 638.836L636.722 634.379L637.337 633.841L640.105 629.999L640.835 628.654L641.066 626.502L640.989 618.28L642.18 613.016L642.026 610.672L640.182 608.482L638.49 607.982L636.684 608.328L635.223 608.866L634.455 609.02L633.109 607.944L632.341 606.599L632.917 604.985L635.646 603.141L633.84 601.527L634.032 598.76L635.146 595.226L635.992 591.268L636.415 582.507L635.8 579.395L634.147 576.282L630.88 573.17L622.232 566.676L619.926 563.103L620.502 558.915L622.463 554.727L623.308 550.731L620.618 547.042L616.121 546.273L612.777 546.389L609.856 547.388L602.783 551.576L600.439 552.498L597.941 552.383L593.713 551.614L581.375 550.462L543.631 551.653L523.99 550.615L519.801 551.422L516.841 556.225L516.995 561.95L520.377 572.017L521.761 579.894L522.837 598.568L524.682 607.675L522.914 619.548L522.837 622.622L523.798 625.888L527.68 634.648L529.025 638.99L531.178 649.326L531.216 652.323L530.678 654.283L530.024 655.051L529.217 655.513L528.295 656.704L526.796 659.124L520.954 666.233L518.34 671.036L516.687 676.377L514.496 687.212L512.882 691.785L508.347 699.508L506.194 703.85L504.695 713.302L505.887 724.791L508.962 736.049L513.151 744.963L516.226 748.268L519.186 750.343L521.453 753.032L522.414 758.143L521.953 762.561L520.262 765.712L517.302 767.518L512.882 767.825L510.422 767.941L509.423 769.362L529.602 773.666L534.252 775.472L544.054 780.236L548.435 781.312L553.124 780.275L567 771.783L572.419 769.67L589.139 765.136L599.632 760.794L620.041 749.92L630.803 745.732L635.8 745.002L646.024 745.155L651.059 744.617L656.094 742.312L662.09 735.396L666.472 732.668L664.358 730.17L655.633 723.369Z"
        fill="#00481A" stroke="white" stroke-width="0.4" mask="url(#path-6-inside-4_0_1)" />
    <path
        d="M683.61 716.354L683.609 716.354L683.617 716.363L685.535 718.664L687.135 721.14L687.624 723.847L686.849 725.027L685.177 726.205L682.35 727.886L674.217 729.688L674.217 729.688L674.21 729.69L670.251 730.881L670.251 730.88L670.239 730.886L666.502 732.546L664.437 730.106L664.43 730.098L664.422 730.091L655.701 723.293L652.173 719.881L649.49 716.624L647.19 713.022L644.965 708.65L643.626 705.362L643.399 703.432L645.778 692.806L645.78 692.797L645.781 692.788L645.857 690.905L645.858 690.894L645.856 690.883L645.472 688.732L645.47 688.722L645.466 688.713L644.851 687.137L644.852 687.137L644.848 687.13L644.236 685.867L643.815 684.681L643.815 684.681L643.811 684.673L643.389 683.751L643.385 683.744L643.381 683.737L642.614 682.588L641.855 681.22L641.478 679.565L641.933 677.33L644.388 671.922L644.389 671.923L644.393 671.91L645.161 669.374L645.165 669.362L645.166 669.348L645.281 665.852L645.282 665.852L645.281 665.841L644.743 658.778L644.972 655.271L645.685 653.882L646.826 652.78L646.827 652.78L646.832 652.773L647.908 651.544L647.925 651.525L647.931 651.5L648.315 649.81L648.323 649.776L648.308 649.746L646.31 645.404L646.301 645.384L646.284 645.37L638.692 638.776L636.845 634.407L637.406 633.917L637.415 633.909L637.421 633.9L640.189 630.058L640.189 630.058L640.195 630.047L640.926 628.702L640.935 628.685L640.937 628.665L641.168 626.513L641.169 626.513L641.168 626.502L641.092 618.291L642.281 613.038L642.284 613.024L642.283 613.009L642.129 610.665L642.127 610.633L642.106 610.607L640.261 608.417L640.242 608.394L640.213 608.386L638.522 607.886L638.498 607.879L638.474 607.884L636.668 608.23L636.66 608.231L636.652 608.234L635.199 608.769L634.484 608.913L633.19 607.878L632.453 606.589L633.003 605.05L635.705 603.224L635.811 603.152L635.716 603.066L633.946 601.485L634.134 598.779L635.245 595.256L635.245 595.256L635.247 595.246L636.093 591.289L636.094 591.281L636.095 591.273L636.518 582.512L636.518 582.5L636.516 582.488L635.901 579.375L635.898 579.361L635.891 579.348L634.238 576.236L634.231 576.221L634.219 576.21L630.952 573.098L630.952 573.097L630.943 573.09L622.309 566.607L620.033 563.08L620.602 558.944L622.556 554.769L622.561 554.759L622.563 554.747L623.409 550.751L623.418 550.708L623.392 550.672L620.862 547.203L640.891 552.019L640.9 552.021L640.91 552.022L643.985 552.175L643.984 552.176L643.993 552.175L655.882 551.72L654.427 556.345L652.468 561.105L652.468 561.105L652.465 561.115L651.043 565.957L651.038 565.971L651.039 565.986L651.115 571.02L651.116 571.037L651.122 571.053L652.428 574.588L652.434 574.604L652.445 574.617L654.444 577.038L654.453 577.049L654.465 577.057L665.532 584.471L668.783 587.033L670.917 590.194L672.102 595.163L672.717 605.222L672.716 605.222L672.717 605.229L673.371 610.185L673.372 610.196L673.375 610.205L675.028 614.97L675.031 614.978L675.035 614.986L679.873 623.66L681.096 627.672L683.017 691.471L682.141 697.108L678.984 699.427L678.922 699.473L678.95 699.544L680.406 703.298L681.288 710.624L681.288 710.624L681.29 710.636L682.136 714.094L682.14 714.111L682.15 714.125L683.61 716.354Z"
        fill="#56C087" stroke="white" stroke-width="0.2" />
    <mask id="path-8-inside-5_0_1" fill="white">
        <path
            d="M898.395 -352.652C899.356 -354.266 902.085 -358.761 902.085 -358.761L907.658 -364.602L913.385 -369.558L919.419 -375.591L923.955 -382.43L927.068 -390.154L928.836 -398.837L928.644 -405.869L925.261 -420.701L924.224 -427.924L924.493 -431.843L926.338 -439.759L927.491 -448.981L927.414 -450.825L926.607 -451.901L925.031 -452.823L923.493 -453.553L922.84 -454.014L925.799 -458.74L931.257 -463.197L935.87 -467.731L936.292 -472.573L916.729 -469.499L910.886 -469.422L904.89 -471.113L892.706 -477.068L886.172 -479.066L885.711 -472.611L876.217 -473.149L859.229 -478.567L855.5 -477.491L852.233 -475.109L849.043 -472.304L845.622 -469.998L841.125 -468.269L826.712 -464.196L819.601 -461.43L816.257 -461.084L812.299 -462.045L808.263 -464.196L800.922 -469.23L796.463 -470.844L785.816 -471.958L774.824 -471.535L748.995 -466.732L739.155 -466.617L734.235 -466.194L729.815 -464.734L722.013 -460.123L717.862 -458.433L707.907 -456.857L675.851 -455.551L666.973 -453.937L658.478 -451.324L641.951 -444.216L634.533 -440.105L631.074 -437.607L628.076 -434.841L624.386 -430.652L621.888 -428.232L618.813 -427.079L603.9 -425.273L594.906 -422.007L586.411 -417.242L570.422 -404.947L561.889 -399.375L552.588 -395.956H542.172L543.209 -392.843L546.323 -390.154L553.933 -385.082L556.431 -382.161L556.969 -379.894L556.355 -375.706L556.854 -373.17L557.892 -372.44L558.776 -371.556L559.468 -370.557L559.891 -369.405L557.738 -365.293L559.276 -361.297L560.813 -357.301L561.351 -349.578L560.89 -345.082L561.313 -341.394L562.889 -333.632V-329.213L562.389 -324.833V-320.453L563.811 -316.111L565.156 -314.151L566.194 -312.038L566.886 -309.809L567.27 -307.465L567.424 -305.929L567.77 -304.43L570.307 -299.781L573.151 -297.168L581.799 -291.404L582.452 -290.751L583.951 -288.138V-287.331L583.452 -286.64L582.452 -286.102L577.84 -282.336L577.379 -281.184L577.187 -279.992L577.302 -278.801L577.725 -277.61L578.224 -276.342L578.378 -275.113L578.186 -273.96L577.648 -272.961L575.572 -272.653L573.458 -272.538H571.306L569.192 -272.769L556.777 -273.153L552.088 -273.345L544.516 -273.653L537.675 -273.96L534.331 -274.114L530.987 -273.96L521.147 -272.385L519.802 -272.269L518.495 -271.962L517.265 -271.424L516.112 -270.694L514.037 -265.391L511.308 -262.433L494.319 -257.015L488.054 -257.246L484.941 -256.515L483.403 -255.747L482.673 -254.095L484.518 -244.95L483.25 -237.88L483.327 -237.304L483.557 -236.766L483.98 -236.266L489.053 -234.076L490.821 -232.27L490.898 -231.079L490.668 -230.003L490.13 -229.081L489.246 -228.274L485.825 -227.121L478.407 -226.391L442.2 -208.601L430.862 -193.616L424.174 -188.544L387.006 -183.087L385.738 -181.551L383.393 -174.557L381.395 -173.558L379.204 -173.213L362.138 -175.095L349.801 -166.181L344.227 -165.259L306.983 -139.284L306.253 -138.247L306.061 -95.7885V-80.5342L447.043 12.6052L661.669 163.573L664.936 167.107L666.358 171.373L666.588 175.023L667.319 178.519L670.201 182.323L672.738 183.937L678.619 186.319L681.04 188.01L681.963 189.432L683.077 192.544L683.923 193.812L688.804 197.001L693.647 198.116L698.682 198.73L704.14 200.459L708.137 203.034L711.251 205.762L714.633 208.259L719.438 210.142L728.893 211.948L733.62 213.447L737.387 215.944L739.463 219.402L741.039 224.359L741.923 229.546V233.734L740.654 236.347L738.579 238.999L736.926 241.803V244.916L744.19 249.411L756.336 248.681L777.437 243.379L823.56 235.387L836.782 229.815L849.697 220.209L885.672 185.397L911.655 165.225L1060.02 71.8932L1052.6 54.6409L1047.99 46.0339L1042.41 39.8477L1037.8 37.5038L1014.43 31.0486L1012.28 30.8949L1010.09 31.4329L1005.59 33.2772L1003.4 33.3541L997.175 29.2427L993.139 21.9038L986.336 -1.68851L982.569 -8.95059L968.54 -30.0069L967.31 -33.734L967.656 -37.9222L969.77 -41.3419L972.999 -43.6473L976.612 -45.6454L979.84 -48.1045L983.761 -55.2513L983.222 -62.2829L980.839 -69.6219L979.148 -77.6909L979.302 -81.8406L980.109 -85.7599L983.799 -98.3629L984.145 -102.205L982.3 -120.264V-147.545L981.647 -154.731L980.109 -161.993L977.841 -169.063L975.036 -175.749L972.922 -179.36L967.848 -186.315L965.926 -189.888L964.62 -193.577L964.773 -195.614L966.657 -197.112L970.577 -199.187L955.741 -265.737L951.82 -273.422L945.786 -278.724L931.911 -287.293L926.76 -293.326L925.069 -297.514L923.839 -301.856L922.302 -306.121L919.727 -310.001L916.882 -312.192L910.387 -315.304L907.542 -317.417L903.929 -322.758L900.662 -330.097L898.164 -337.859L896.857 -344.506L897.972 -351.922L898.318 -352.498L898.395 -352.652Z" />
    </mask>
    <path
        d="M898.395 -352.652C899.356 -354.266 902.085 -358.761 902.085 -358.761L907.658 -364.602L913.385 -369.558L919.419 -375.591L923.955 -382.43L927.068 -390.154L928.836 -398.837L928.644 -405.869L925.261 -420.701L924.224 -427.924L924.493 -431.843L926.338 -439.759L927.491 -448.981L927.414 -450.825L926.607 -451.901L925.031 -452.823L923.493 -453.553L922.84 -454.014L925.799 -458.74L931.257 -463.197L935.87 -467.731L936.292 -472.573L916.729 -469.499L910.886 -469.422L904.89 -471.113L892.706 -477.068L886.172 -479.066L885.711 -472.611L876.217 -473.149L859.229 -478.567L855.5 -477.491L852.233 -475.109L849.043 -472.304L845.622 -469.998L841.125 -468.269L826.712 -464.196L819.601 -461.43L816.257 -461.084L812.299 -462.045L808.263 -464.196L800.922 -469.23L796.463 -470.844L785.816 -471.958L774.824 -471.535L748.995 -466.732L739.155 -466.617L734.235 -466.194L729.815 -464.734L722.013 -460.123L717.862 -458.433L707.907 -456.857L675.851 -455.551L666.973 -453.937L658.478 -451.324L641.951 -444.216L634.533 -440.105L631.074 -437.607L628.076 -434.841L624.386 -430.652L621.888 -428.232L618.813 -427.079L603.9 -425.273L594.906 -422.007L586.411 -417.242L570.422 -404.947L561.889 -399.375L552.588 -395.956H542.172L543.209 -392.843L546.323 -390.154L553.933 -385.082L556.431 -382.161L556.969 -379.894L556.355 -375.706L556.854 -373.17L557.892 -372.44L558.776 -371.556L559.468 -370.557L559.891 -369.405L557.738 -365.293L559.276 -361.297L560.813 -357.301L561.351 -349.578L560.89 -345.082L561.313 -341.394L562.889 -333.632V-329.213L562.389 -324.833V-320.453L563.811 -316.111L565.156 -314.151L566.194 -312.038L566.886 -309.809L567.27 -307.465L567.424 -305.929L567.77 -304.43L570.307 -299.781L573.151 -297.168L581.799 -291.404L582.452 -290.751L583.951 -288.138V-287.331L583.452 -286.64L582.452 -286.102L577.84 -282.336L577.379 -281.184L577.187 -279.992L577.302 -278.801L577.725 -277.61L578.224 -276.342L578.378 -275.113L578.186 -273.96L577.648 -272.961L575.572 -272.653L573.458 -272.538H571.306L569.192 -272.769L556.777 -273.153L552.088 -273.345L544.516 -273.653L537.675 -273.96L534.331 -274.114L530.987 -273.96L521.147 -272.385L519.802 -272.269L518.495 -271.962L517.265 -271.424L516.112 -270.694L514.037 -265.391L511.308 -262.433L494.319 -257.015L488.054 -257.246L484.941 -256.515L483.403 -255.747L482.673 -254.095L484.518 -244.95L483.25 -237.88L483.327 -237.304L483.557 -236.766L483.98 -236.266L489.053 -234.076L490.821 -232.27L490.898 -231.079L490.668 -230.003L490.13 -229.081L489.246 -228.274L485.825 -227.121L478.407 -226.391L442.2 -208.601L430.862 -193.616L424.174 -188.544L387.006 -183.087L385.738 -181.551L383.393 -174.557L381.395 -173.558L379.204 -173.213L362.138 -175.095L349.801 -166.181L344.227 -165.259L306.983 -139.284L306.253 -138.247L306.061 -95.7885V-80.5342L447.043 12.6052L661.669 163.573L664.936 167.107L666.358 171.373L666.588 175.023L667.319 178.519L670.201 182.323L672.738 183.937L678.619 186.319L681.04 188.01L681.963 189.432L683.077 192.544L683.923 193.812L688.804 197.001L693.647 198.116L698.682 198.73L704.14 200.459L708.137 203.034L711.251 205.762L714.633 208.259L719.438 210.142L728.893 211.948L733.62 213.447L737.387 215.944L739.463 219.402L741.039 224.359L741.923 229.546V233.734L740.654 236.347L738.579 238.999L736.926 241.803V244.916L744.19 249.411L756.336 248.681L777.437 243.379L823.56 235.387L836.782 229.815L849.697 220.209L885.672 185.397L911.655 165.225L1060.02 71.8932L1052.6 54.6409L1047.99 46.0339L1042.41 39.8477L1037.8 37.5038L1014.43 31.0486L1012.28 30.8949L1010.09 31.4329L1005.59 33.2772L1003.4 33.3541L997.175 29.2427L993.139 21.9038L986.336 -1.68851L982.569 -8.95059L968.54 -30.0069L967.31 -33.734L967.656 -37.9222L969.77 -41.3419L972.999 -43.6473L976.612 -45.6454L979.84 -48.1045L983.761 -55.2513L983.222 -62.2829L980.839 -69.6219L979.148 -77.6909L979.302 -81.8406L980.109 -85.7599L983.799 -98.3629L984.145 -102.205L982.3 -120.264V-147.545L981.647 -154.731L980.109 -161.993L977.841 -169.063L975.036 -175.749L972.922 -179.36L967.848 -186.315L965.926 -189.888L964.62 -193.577L964.773 -195.614L966.657 -197.112L970.577 -199.187L955.741 -265.737L951.82 -273.422L945.786 -278.724L931.911 -287.293L926.76 -293.326L925.069 -297.514L923.839 -301.856L922.302 -306.121L919.727 -310.001L916.882 -312.192L910.387 -315.304L907.542 -317.417L903.929 -322.758L900.662 -330.097L898.164 -337.859L896.857 -344.506L897.972 -351.922L898.318 -352.498L898.395 -352.652Z"
        fill="#D8D8D8" stroke="white" stroke-width="0.4" mask="url(#path-8-inside-5_0_1)" />
    <mask id="path-9-inside-6_0_1" fill="white">
        <path
            d="M885.751 185.243L849.775 220.055L836.822 229.7L823.6 235.271L777.477 243.225L777.17 326.297L775.748 336.134L773.557 345.394L765.831 369.908L764.524 372.905L762.949 375.441L759.489 378.131L755.415 380.283L752.148 383.126L751.072 388.006L736.159 386.776L674.585 390.311L670.587 391.157L667.205 393.424L661.286 399.725L657.942 402.069L651.292 402.799L643.067 402.031L635.534 401.954L631.075 404.797L630.268 409.984L629.999 414.672L630.46 419.168L631.882 423.74L632.997 425.892L635.572 429.965L636.61 431.924L638.532 438.956L639.685 441.492L642.529 445.719L645.45 448.447L656.597 455.286L663.131 460.858L666.974 463.317L665.206 463.97L663.246 464.124L661.209 463.816L659.21 463.048L658.711 470.348L660.901 474.998L677.006 488.062L680.273 489.983L684.155 490.943L687.422 490.521L693.072 487.946L695.686 487.485L698.223 487.793L700.029 488.369L701.49 489.637L702.95 492.173L704.142 496.054L703.219 497.322L701.413 497.783L700.144 499.397L700.452 503.969L702.758 508.657L706.294 513.345L710.368 517.955L711.214 512.73L710.522 509.579L710.83 507.12L714.519 503.969L724.013 500.396L725.973 499.858L730.278 501.664L734.314 505.276L741.309 513.191L751.841 521.952L754.416 525.448L756.722 519.646L757.145 499.589L759.605 491.75L768.137 481.261L771.174 475.881L774.671 462.817L776.862 458.591L780.398 455.209L785.895 451.905L792.121 449.715L798.233 449.215L804.344 449.254L810.724 448.716L820.141 445.911L824.292 445.258L829.981 445.988L840.935 448.754L850.544 452.212L859.076 457.476L875.181 473.691L883.022 475.036L891.67 471.962L902.547 466.775L913.502 465.161L923.149 468.811L932.489 474.767L942.636 480.146L949.132 482.144L956.78 483.681L964.544 484.335L971.232 483.72L976.114 481.376L980.265 477.61L984.262 473.384L988.797 469.657L999.982 464.969L1012.82 462.817L1026 462.548L1038.15 463.394L1048.6 466.237L1059.52 470.579L1069.97 473.307L1079.04 471.309L1097.92 457.361L1108.49 451.866L1119.94 450.291L1116.06 433.154L1115.25 427.39L1115.98 423.702L1141.08 382.742L1180.94 337.402L1186.28 329.217L1188.93 319.458L1196.66 219.979L1197.58 214.638L1199.23 210.68L1203.92 202.765L1205.11 198.922L1204.88 195.733L1203.65 193.159L1201.62 190.738L1193.39 182.861L1192.28 181.478L1191.74 178.634L1192.16 176.367L1192.85 174.485L1193.01 172.832L1191.05 168.26L1181.55 154.927L1179.13 150.239L1177.98 146.166L1170.06 92.4497L1148.38 105.706L1142.46 107.397L1136.81 104.515L1120.02 87.8773L1106.64 81.7679L1060.1 71.7393L911.733 165.071L885.751 185.243Z" />
    </mask>
    <path
        d="M885.751 185.243L849.775 220.055L836.822 229.7L823.6 235.271L777.477 243.225L777.17 326.297L775.748 336.134L773.557 345.394L765.831 369.908L764.524 372.905L762.949 375.441L759.489 378.131L755.415 380.283L752.148 383.126L751.072 388.006L736.159 386.776L674.585 390.311L670.587 391.157L667.205 393.424L661.286 399.725L657.942 402.069L651.292 402.799L643.067 402.031L635.534 401.954L631.075 404.797L630.268 409.984L629.999 414.672L630.46 419.168L631.882 423.74L632.997 425.892L635.572 429.965L636.61 431.924L638.532 438.956L639.685 441.492L642.529 445.719L645.45 448.447L656.597 455.286L663.131 460.858L666.974 463.317L665.206 463.97L663.246 464.124L661.209 463.816L659.21 463.048L658.711 470.348L660.901 474.998L677.006 488.062L680.273 489.983L684.155 490.943L687.422 490.521L693.072 487.946L695.686 487.485L698.223 487.793L700.029 488.369L701.49 489.637L702.95 492.173L704.142 496.054L703.219 497.322L701.413 497.783L700.144 499.397L700.452 503.969L702.758 508.657L706.294 513.345L710.368 517.955L711.214 512.73L710.522 509.579L710.83 507.12L714.519 503.969L724.013 500.396L725.973 499.858L730.278 501.664L734.314 505.276L741.309 513.191L751.841 521.952L754.416 525.448L756.722 519.646L757.145 499.589L759.605 491.75L768.137 481.261L771.174 475.881L774.671 462.817L776.862 458.591L780.398 455.209L785.895 451.905L792.121 449.715L798.233 449.215L804.344 449.254L810.724 448.716L820.141 445.911L824.292 445.258L829.981 445.988L840.935 448.754L850.544 452.212L859.076 457.476L875.181 473.691L883.022 475.036L891.67 471.962L902.547 466.775L913.502 465.161L923.149 468.811L932.489 474.767L942.636 480.146L949.132 482.144L956.78 483.681L964.544 484.335L971.232 483.72L976.114 481.376L980.265 477.61L984.262 473.384L988.797 469.657L999.982 464.969L1012.82 462.817L1026 462.548L1038.15 463.394L1048.6 466.237L1059.52 470.579L1069.97 473.307L1079.04 471.309L1097.92 457.361L1108.49 451.866L1119.94 450.291L1116.06 433.154L1115.25 427.39L1115.98 423.702L1141.08 382.742L1180.94 337.402L1186.28 329.217L1188.93 319.458L1196.66 219.979L1197.58 214.638L1199.23 210.68L1203.92 202.765L1205.11 198.922L1204.88 195.733L1203.65 193.159L1201.62 190.738L1193.39 182.861L1192.28 181.478L1191.74 178.634L1192.16 176.367L1192.85 174.485L1193.01 172.832L1191.05 168.26L1181.55 154.927L1179.13 150.239L1177.98 146.166L1170.06 92.4497L1148.38 105.706L1142.46 107.397L1136.81 104.515L1120.02 87.8773L1106.64 81.7679L1060.1 71.7393L911.733 165.071L885.751 185.243Z"
        fill="#56C087" stroke="white" stroke-width="0.4" mask="url(#path-9-inside-6_0_1)" />
    <mask id="path-10-inside-7_0_1" fill="white">
        <path
            d="M23.3277 355.384L19.3688 369.716L20.4835 349.736L22.3668 340.053L25.557 330.37L33.3595 311.696L36.319 302.167L37.7796 291.985L37.6643 282.763L36.6265 273.657L31.3993 250.564L30.6305 248.105L29.439 245.684L27.8632 243.801L23.8274 240.228L22.5206 238.46L21.5597 234.733L22.9434 233.542L25.4417 232.428L27.8247 228.893L26.5948 229.354L23.9811 229.969L22.7512 230.43L28.7856 217.097L30.669 209.988L30.7458 202.803L29.4775 197.885L26.9791 191.506L23.5968 185.666L19.6379 182.323L18.677 185.474L18.4464 186.434L12.2582 179.326L7.79967 170.95L4.22514 168.337L0.689045 178.558L0.304688 175.906L0.381559 173.255L0.804353 170.604L1.57307 168.029L2.87989 162.381V160.498L3.37955 159.077L4.41732 158.231L6.10849 158.078H16.8321L62.8782 158.001H104.735L113.114 157.924H147.937L147.475 150.623L147.014 142.977L146.86 140.211L146.514 134.678L146.169 129.298L145.246 114.39L145.054 111.815L144.554 109.395L143.747 107.051L142.863 104.515L142.479 101.979L142.709 100.634L143.055 99.3276L143.555 98.0596L144.17 96.83L147.437 92.2192L158.084 84.5728L162.427 81.4605L163.811 80.9994L165.194 80.6152L166.616 80.3462L168.077 80.1541L170.691 79.6546L173.227 78.8861L178.109 76.6959L182.029 74.9669L184.22 73.6989L184.489 -27.8938H306.215V-80.6113L447.121 12.5281H382.433L417.179 336.556L417.871 339.592L419.024 342.358L420.908 345.471L422.714 347.661L424.636 349.659L426.289 351.734L427.25 354.116L426.942 359.918L423.329 377.977L421.331 382.627L416.68 383.741L298.836 383.472L286.267 381.666L281.809 375.787L279.426 377.67L278.349 380.014L277.504 382.435L275.889 384.471L271.2 386.354L264.897 387.161L258.478 387.238L253.366 386.892L240.874 384.548L236.685 384.932L233.11 387.122L226.73 394.154L224.424 395.652L216.737 391.349L210.472 383.126L203.938 378.17L195.366 383.626L192.138 391.579L188.64 402.261L183.374 409.869L174.803 408.601L170.152 405.988L165.041 402.108L160.236 397.804L156.508 393.962L149.474 385.239L146.745 382.588L141.864 376.44L137.982 369.178L133.715 362.531L127.604 358.266L123.837 357.536L120.647 357.421L117.495 356.844L113.844 354.769L109.232 350.274L105.081 345.471L100.161 341.321L93.204 338.823L83.4413 338.055L74.6011 338.785L45.3515 344.933L41.0851 344.856L38.6252 344.241L36.0116 343.357L33.3979 342.82L30.9765 343.204L26.3642 347.93L23.4815 355.346L23.3277 355.384ZM21.9056 223.36L22.29 224.282L22.9434 225.166L24.4039 222.937L25.4417 220.478L26.0951 217.865L26.4026 215.176L24.7499 216.251L23.4815 217.635L22.4437 219.287L21.5213 221.208L21.675 222.322L21.9056 223.321V223.36Z" />
    </mask>
    <path
        d="M23.3277 355.384L19.3688 369.716L20.4835 349.736L22.3668 340.053L25.557 330.37L33.3595 311.696L36.319 302.167L37.7796 291.985L37.6643 282.763L36.6265 273.657L31.3993 250.564L30.6305 248.105L29.439 245.684L27.8632 243.801L23.8274 240.228L22.5206 238.46L21.5597 234.733L22.9434 233.542L25.4417 232.428L27.8247 228.893L26.5948 229.354L23.9811 229.969L22.7512 230.43L28.7856 217.097L30.669 209.988L30.7458 202.803L29.4775 197.885L26.9791 191.506L23.5968 185.666L19.6379 182.323L18.677 185.474L18.4464 186.434L12.2582 179.326L7.79967 170.95L4.22514 168.337L0.689045 178.558L0.304688 175.906L0.381559 173.255L0.804353 170.604L1.57307 168.029L2.87989 162.381V160.498L3.37955 159.077L4.41732 158.231L6.10849 158.078H16.8321L62.8782 158.001H104.735L113.114 157.924H147.937L147.475 150.623L147.014 142.977L146.86 140.211L146.514 134.678L146.169 129.298L145.246 114.39L145.054 111.815L144.554 109.395L143.747 107.051L142.863 104.515L142.479 101.979L142.709 100.634L143.055 99.3276L143.555 98.0596L144.17 96.83L147.437 92.2192L158.084 84.5728L162.427 81.4605L163.811 80.9994L165.194 80.6152L166.616 80.3462L168.077 80.1541L170.691 79.6546L173.227 78.8861L178.109 76.6959L182.029 74.9669L184.22 73.6989L184.489 -27.8938H306.215V-80.6113L447.121 12.5281H382.433L417.179 336.556L417.871 339.592L419.024 342.358L420.908 345.471L422.714 347.661L424.636 349.659L426.289 351.734L427.25 354.116L426.942 359.918L423.329 377.977L421.331 382.627L416.68 383.741L298.836 383.472L286.267 381.666L281.809 375.787L279.426 377.67L278.349 380.014L277.504 382.435L275.889 384.471L271.2 386.354L264.897 387.161L258.478 387.238L253.366 386.892L240.874 384.548L236.685 384.932L233.11 387.122L226.73 394.154L224.424 395.652L216.737 391.349L210.472 383.126L203.938 378.17L195.366 383.626L192.138 391.579L188.64 402.261L183.374 409.869L174.803 408.601L170.152 405.988L165.041 402.108L160.236 397.804L156.508 393.962L149.474 385.239L146.745 382.588L141.864 376.44L137.982 369.178L133.715 362.531L127.604 358.266L123.837 357.536L120.647 357.421L117.495 356.844L113.844 354.769L109.232 350.274L105.081 345.471L100.161 341.321L93.204 338.823L83.4413 338.055L74.6011 338.785L45.3515 344.933L41.0851 344.856L38.6252 344.241L36.0116 343.357L33.3979 342.82L30.9765 343.204L26.3642 347.93L23.4815 355.346L23.3277 355.384ZM21.9056 223.36L22.29 224.282L22.9434 225.166L24.4039 222.937L25.4417 220.478L26.0951 217.865L26.4026 215.176L24.7499 216.251L23.4815 217.635L22.4437 219.287L21.5213 221.208L21.675 222.322L21.9056 223.321V223.36Z"
        fill="#D8D8D8" stroke="white" stroke-width="0.4" mask="url(#path-10-inside-7_0_1)" />
    <mask id="path-11-inside-8_0_1" fill="white">
        <path
            d="M76.4452 549.963L73.87 553.574L72.9091 551.692L72.4094 550.001L72.5247 548.195L73.4472 546.082L72.1404 547.081L68.6811 549.232L67.3359 550.231L66.4903 546.389L63.1848 543.93L60.7249 541.24L62.4545 536.668H61.2246L58.88 536.245L57.8807 536.168L60.4174 532.825L64.1457 530.751L68.4505 529.636L72.7553 529.175L68.6427 527.292L62.8389 527.408L58.0729 526.716L57.1504 522.413L59.9562 519.223L69.2192 518.032L72.5632 515.343L69.0271 516.303H61.8011L58.1497 516.803L53.9218 518.762L50.1166 521.145L46.0809 522.682L41.0842 522.144L42.391 517.571L40.2386 516.457L36.3951 516.841L32.6284 516.687L29.0538 514.613L27.4011 511.846L27.7086 508.657L30.0147 505.352L25.1334 505.506L21.3667 504.93L17.6384 503.47L12.9492 500.972L18.6377 500.396L29.2844 498.052L48.9636 495.708L55.4208 494.248L62.6852 491.673L76.4452 488.331L91.7042 487.716L121.876 489.022L122.414 492.404L123.414 495.785L123.837 499.166L122.645 502.509L120.839 503.777L116.495 504.43L114.996 505.583L115.496 509.156L118.917 512.653L122.068 516.764L121.761 522.259L119.032 525.064L115.035 526.293L106.118 527.139L102.582 527.907L99.3529 528.906L86.8228 533.824L84.9395 535.323L82.4796 538.435L80.2503 542.239L76.4452 550.078V549.963ZM41.1995 544.16L40.5461 546.735L40.3539 547.964L40.2386 549.117L41.8529 548.349L42.6217 547.388L42.4295 546.043L41.1995 544.16ZM49.0789 541.087L46.9649 544.084L47.3493 544.199L48.4255 544.698L48.9636 544.814L50.3857 542.124L50.3088 540.625L49.0404 541.048L49.0789 541.087ZM55.0364 529.137L53.8834 530.174L52.8456 531.442L54.7674 531.557L56.2664 530.981L57.3041 529.713L57.8422 527.754L56.3432 528.291L55.0364 529.098V529.137ZM42.0451 531.212L40.4693 529.483L38.1247 533.555L41.6608 534.132L42.0451 531.212ZM39.4699 518.455L38.0094 518.263H36.3951L34.7808 518.378L33.3971 518.647L33.8583 520.453L34.7423 521.606L35.9723 522.374L37.5481 523.027L38.1247 521.99L39.4315 518.455H39.4699ZM32.8205 545.352L30.3222 547.081L31.4368 548.848L32.7821 549.425L34.3964 549.117L36.3566 548.157L36.4719 545.16L35.0882 544.429L32.859 545.275L32.8205 545.352Z" />
    </mask>
    <path
        d="M76.4452 549.963L73.87 553.574L72.9091 551.692L72.4094 550.001L72.5247 548.195L73.4472 546.082L72.1404 547.081L68.6811 549.232L67.3359 550.231L66.4903 546.389L63.1848 543.93L60.7249 541.24L62.4545 536.668H61.2246L58.88 536.245L57.8807 536.168L60.4174 532.825L64.1457 530.751L68.4505 529.636L72.7553 529.175L68.6427 527.292L62.8389 527.408L58.0729 526.716L57.1504 522.413L59.9562 519.223L69.2192 518.032L72.5632 515.343L69.0271 516.303H61.8011L58.1497 516.803L53.9218 518.762L50.1166 521.145L46.0809 522.682L41.0842 522.144L42.391 517.571L40.2386 516.457L36.3951 516.841L32.6284 516.687L29.0538 514.613L27.4011 511.846L27.7086 508.657L30.0147 505.352L25.1334 505.506L21.3667 504.93L17.6384 503.47L12.9492 500.972L18.6377 500.396L29.2844 498.052L48.9636 495.708L55.4208 494.248L62.6852 491.673L76.4452 488.331L91.7042 487.716L121.876 489.022L122.414 492.404L123.414 495.785L123.837 499.166L122.645 502.509L120.839 503.777L116.495 504.43L114.996 505.583L115.496 509.156L118.917 512.653L122.068 516.764L121.761 522.259L119.032 525.064L115.035 526.293L106.118 527.139L102.582 527.907L99.3529 528.906L86.8228 533.824L84.9395 535.323L82.4796 538.435L80.2503 542.239L76.4452 550.078V549.963ZM41.1995 544.16L40.5461 546.735L40.3539 547.964L40.2386 549.117L41.8529 548.349L42.6217 547.388L42.4295 546.043L41.1995 544.16ZM49.0789 541.087L46.9649 544.084L47.3493 544.199L48.4255 544.698L48.9636 544.814L50.3857 542.124L50.3088 540.625L49.0404 541.048L49.0789 541.087ZM55.0364 529.137L53.8834 530.174L52.8456 531.442L54.7674 531.557L56.2664 530.981L57.3041 529.713L57.8422 527.754L56.3432 528.291L55.0364 529.098V529.137ZM42.0451 531.212L40.4693 529.483L38.1247 533.555L41.6608 534.132L42.0451 531.212ZM39.4699 518.455L38.0094 518.263H36.3951L34.7808 518.378L33.3971 518.647L33.8583 520.453L34.7423 521.606L35.9723 522.374L37.5481 523.027L38.1247 521.99L39.4315 518.455H39.4699ZM32.8205 545.352L30.3222 547.081L31.4368 548.848L32.7821 549.425L34.3964 549.117L36.3566 548.157L36.4719 545.16L35.0882 544.429L32.859 545.275L32.8205 545.352Z"
        fill="#018450" stroke="white" stroke-width="0.4" mask="url(#path-11-inside-8_0_1)" />
    <mask id="path-12-inside-9_0_1" fill="white">
        <path
            d="M944.363 762.6L935.522 781.582L932.563 782.043L929.68 780.506L924.453 775.434L925.183 781.697L926.067 785.616L924.338 787.807L906.119 790.342L900.853 789.382L898.048 785.271L894.857 789.228L890.36 788.69L885.556 785.885L881.482 783.042L883.634 786.5L883.826 790.535L881.866 793.762L877.523 794.838L874.217 793.147L872.872 789.728L872.026 785.847L870.22 782.735L870.797 786.154L871.066 789.536L871.757 792.725L873.602 795.607L870.028 796.606H866.876L864.531 795.222L863.34 791.841L861.495 796.068L856.998 798.219L852.847 797.566L852.04 793.455L848.965 797.95L844.622 798.335L839.702 796.068L834.821 792.609L829.363 787.422L825.289 781.543L822.214 775.05L819.639 767.941L820.561 767.788L822.291 767.211L823.021 767.019L818.562 765.021L819.831 761.717L823.367 758.105L825.711 755.262L822.636 756.606L818.332 757.106L814.527 756.145L812.951 753.071L814.181 751.803L816.948 751.15L820.061 750.728L822.329 750.19L819.984 749.882L818.908 749.383L818.37 748.422L817.601 746.693L814.527 750.074L812.259 749.613L808.569 744.234L804.994 740.007L797.038 731.938L792.695 728.365L781.933 723.216L771.209 722.102H760.332L749.07 720.257L760.063 714.494H757.834L755.528 714.84L753.221 715.493L751.031 716.415L749.493 717.529L746.265 720.488L744.919 721.372L739.577 722.409H721.935L724.856 691.632V681.641L722.127 665.119L721.819 659.279L723.049 632.497L723.741 627.733L724.933 625.735L730.314 623.007L733.312 621.085L735.233 619.625L736.656 617.512L738.078 613.631L739.846 607.022L744.573 597.032L745.611 595.418L747.61 593.997L751.876 592.037L753.798 590.116L755.143 586.581L754.72 583.584L753.798 580.971L753.683 578.512L756.104 574.516L759.141 572.825L761.793 570.827L763.099 565.909L760.64 555.304L755.374 545.198L751.799 535.323L754.374 525.41L756.681 519.646L757.103 499.589L759.563 491.751L768.134 481.261L771.132 475.882L774.63 462.818L776.821 458.591L780.357 455.21L785.853 451.905L792.118 449.715L798.191 449.215H804.303L810.683 448.716L820.1 445.911L824.251 445.258L829.939 445.988L840.894 448.754L850.541 452.213L859.074 457.477L875.14 473.73L882.981 475.075L891.629 471.962L902.506 466.775L913.46 465.161L923.108 468.812L932.448 474.767L942.595 480.147L949.09 482.145L956.739 483.682L964.465 484.335L971.152 483.72L976.034 481.376L980.185 477.611L984.182 473.384L988.718 469.657L999.902 464.969L1012.74 462.818L1025.92 462.51L1038.11 463.355L1048.56 466.199L1059.48 470.541L1069.93 473.269L1079 471.271L1097.84 457.323L1108.41 451.867L1119.86 450.253L1136.58 473.73L1139.04 491.597L1140.88 496.669L1144 499.704L1151.92 502.471L1155.49 505.775L1157.1 510.271L1156.84 514.882L1154.8 524.18L1154.41 528.983L1153.95 531.865L1152.22 534.171L1148.03 537.168L1143.5 539.55L1134.39 543.354L1130.32 546.082L1126.86 549.924L1123.28 555.073L1120.09 560.529L1117.75 565.255L1108.87 588.579L1107.18 596.725L1105.91 600.759L1103.33 604.525L1096.72 609.289L1093.69 613.016L1092.38 616.936L1091.61 625.581L1090.69 629.615L1087.69 634.495L1084.12 636.839L1080.08 638.415L1075.7 640.874L1072.97 644.255L1071.16 648.712L1063.78 671.997L1061.82 676.3L1055.29 687.367L1053.87 691.094L1054.17 691.977L1055.98 693.937L1056.17 694.898L1055.44 695.781L1053.1 697.28L1050.68 699.624L1047.02 702.237L1045.56 703.85L1044.1 707.193L1043.41 710.267L1042.26 713.226L1039.38 716.261L1031.92 719.066L1027.15 715.454L1023.16 708.807L1018.08 702.467L1014.09 698.778L1011.74 697.28L1009.32 697.011L1008.17 698.048L1007.05 701.852L1005.82 703.12L1002.13 703.966L998.519 703.735L995.444 702.237L993.445 699.278L975.803 713.802L959.391 730.055L954.433 735.896L950.974 741.736L948.514 748.115L944.324 762.524L944.363 762.6ZM886.44 790.765L884.902 792.225L883.826 794.761L886.132 794.992L888.093 794.492L889.63 793.301L890.706 791.38L888.4 790.419L886.478 790.727L886.44 790.765Z" />
    </mask>
    <path
        d="M944.363 762.6L935.522 781.582L932.563 782.043L929.68 780.506L924.453 775.434L925.183 781.697L926.067 785.616L924.338 787.807L906.119 790.342L900.853 789.382L898.048 785.271L894.857 789.228L890.36 788.69L885.556 785.885L881.482 783.042L883.634 786.5L883.826 790.535L881.866 793.762L877.523 794.838L874.217 793.147L872.872 789.728L872.026 785.847L870.22 782.735L870.797 786.154L871.066 789.536L871.757 792.725L873.602 795.607L870.028 796.606H866.876L864.531 795.222L863.34 791.841L861.495 796.068L856.998 798.219L852.847 797.566L852.04 793.455L848.965 797.95L844.622 798.335L839.702 796.068L834.821 792.609L829.363 787.422L825.289 781.543L822.214 775.05L819.639 767.941L820.561 767.788L822.291 767.211L823.021 767.019L818.562 765.021L819.831 761.717L823.367 758.105L825.711 755.262L822.636 756.606L818.332 757.106L814.527 756.145L812.951 753.071L814.181 751.803L816.948 751.15L820.061 750.728L822.329 750.19L819.984 749.882L818.908 749.383L818.37 748.422L817.601 746.693L814.527 750.074L812.259 749.613L808.569 744.234L804.994 740.007L797.038 731.938L792.695 728.365L781.933 723.216L771.209 722.102H760.332L749.07 720.257L760.063 714.494H757.834L755.528 714.84L753.221 715.493L751.031 716.415L749.493 717.529L746.265 720.488L744.919 721.372L739.577 722.409H721.935L724.856 691.632V681.641L722.127 665.119L721.819 659.279L723.049 632.497L723.741 627.733L724.933 625.735L730.314 623.007L733.312 621.085L735.233 619.625L736.656 617.512L738.078 613.631L739.846 607.022L744.573 597.032L745.611 595.418L747.61 593.997L751.876 592.037L753.798 590.116L755.143 586.581L754.72 583.584L753.798 580.971L753.683 578.512L756.104 574.516L759.141 572.825L761.793 570.827L763.099 565.909L760.64 555.304L755.374 545.198L751.799 535.323L754.374 525.41L756.681 519.646L757.103 499.589L759.563 491.751L768.134 481.261L771.132 475.882L774.63 462.818L776.821 458.591L780.357 455.21L785.853 451.905L792.118 449.715L798.191 449.215H804.303L810.683 448.716L820.1 445.911L824.251 445.258L829.939 445.988L840.894 448.754L850.541 452.213L859.074 457.477L875.14 473.73L882.981 475.075L891.629 471.962L902.506 466.775L913.46 465.161L923.108 468.812L932.448 474.767L942.595 480.147L949.09 482.145L956.739 483.682L964.465 484.335L971.152 483.72L976.034 481.376L980.185 477.611L984.182 473.384L988.718 469.657L999.902 464.969L1012.74 462.818L1025.92 462.51L1038.11 463.355L1048.56 466.199L1059.48 470.541L1069.93 473.269L1079 471.271L1097.84 457.323L1108.41 451.867L1119.86 450.253L1136.58 473.73L1139.04 491.597L1140.88 496.669L1144 499.704L1151.92 502.471L1155.49 505.775L1157.1 510.271L1156.84 514.882L1154.8 524.18L1154.41 528.983L1153.95 531.865L1152.22 534.171L1148.03 537.168L1143.5 539.55L1134.39 543.354L1130.32 546.082L1126.86 549.924L1123.28 555.073L1120.09 560.529L1117.75 565.255L1108.87 588.579L1107.18 596.725L1105.91 600.759L1103.33 604.525L1096.72 609.289L1093.69 613.016L1092.38 616.936L1091.61 625.581L1090.69 629.615L1087.69 634.495L1084.12 636.839L1080.08 638.415L1075.7 640.874L1072.97 644.255L1071.16 648.712L1063.78 671.997L1061.82 676.3L1055.29 687.367L1053.87 691.094L1054.17 691.977L1055.98 693.937L1056.17 694.898L1055.44 695.781L1053.1 697.28L1050.68 699.624L1047.02 702.237L1045.56 703.85L1044.1 707.193L1043.41 710.267L1042.26 713.226L1039.38 716.261L1031.92 719.066L1027.15 715.454L1023.16 708.807L1018.08 702.467L1014.09 698.778L1011.74 697.28L1009.32 697.011L1008.17 698.048L1007.05 701.852L1005.82 703.12L1002.13 703.966L998.519 703.735L995.444 702.237L993.445 699.278L975.803 713.802L959.391 730.055L954.433 735.896L950.974 741.736L948.514 748.115L944.324 762.524L944.363 762.6ZM886.44 790.765L884.902 792.225L883.826 794.761L886.132 794.992L888.093 794.492L889.63 793.301L890.706 791.38L888.4 790.419L886.478 790.727L886.44 790.765Z"
        fill="#018450" stroke="white" stroke-width="0.4" mask="url(#path-12-inside-9_0_1)" />
    <path
        d="M481.674 359.764C484.019 350.004 486.286 340.206 488.592 330.446H490.822V367.026H488.477V339.437L482.558 363.99H480.79L474.909 339.514V367.064H472.642V330.485H474.832L481.674 359.802V359.764Z"
        fill="white" />
    <path
        d="M508.268 357.843H499.236L497.353 367.026H494.97L502.542 330.408H504.925L512.458 367.026H510.075L508.268 357.843ZM499.62 355.73H507.961L503.771 334.904L499.62 355.73Z"
        fill="white" />
    <path d="M518.92 330.446V364.759H528.222V367.026H516.614V330.446H518.959H518.92Z" fill="white" />
    <path d="M535.214 330.446V367.026H532.869V330.446H535.214Z" fill="white" />
    <path
        d="M976.882 313.156L966.466 283.531V313.156H964.198V276.576H966.235L976.728 306.508V276.576H978.996V313.156H976.92H976.882Z"
        fill="white" />
    <path d="M987.565 276.576V313.156H985.221V276.576H987.565Z" fill="white" />
    <path
        d="M995.408 305.894C995.408 309.198 997.522 311.196 1000.44 311.196C1003.36 311.196 1005.48 309.236 1005.48 305.894V298.9H1000.29V296.787H1007.82V305.855C1007.82 310.389 1004.82 313.502 1000.44 313.502C996.062 313.502 993.14 310.351 993.14 305.855V284.03C993.14 279.535 996.138 276.346 1000.44 276.346C1004.75 276.346 1007.75 279.496 1007.82 284.03H1005.48C1005.48 280.726 1003.29 278.69 1000.44 278.69C997.599 278.69 995.408 280.649 995.408 283.992V305.932V305.894Z"
        fill="white" />
    <path
        d="M1015.55 310.85H1025.5V313.117H1013.21V276.537H1025.5V278.804H1015.55V293.405H1022.7V295.519H1015.55V310.811V310.85Z"
        fill="white" />
    <path
        d="M1032.11 301.321V313.156H1029.77V276.576H1036.19C1040.53 276.576 1043.57 279.074 1043.57 284.146V293.291C1043.57 298.209 1041.3 300.207 1038.18 300.86L1043.72 313.156H1041.03L1035.84 301.321H1032.11ZM1032.11 299.093H1035.99C1039.14 299.093 1041.3 297.479 1041.3 292.906V284.146C1041.3 280.419 1039.07 278.843 1035.99 278.843H1032.11V299.093Z"
        fill="white" />
    <path
        d="M879.524 616.204L869.108 586.58V616.204H866.84V579.625H868.877L879.37 609.557V579.625H881.638V616.204H879.562H879.524Z"
        fill="white" />
    <path d="M890.207 579.625V616.204H887.862V579.625H890.207Z" fill="white" />
    <path
        d="M898.05 608.943C898.05 612.247 900.164 614.245 903.085 614.245C906.006 614.245 908.12 612.286 908.12 608.943V601.95H902.931V599.836H910.464V608.904C910.464 613.438 907.466 616.551 903.085 616.551C898.703 616.551 895.782 613.4 895.782 608.904V587.041C895.782 582.546 898.78 579.356 903.085 579.356C907.39 579.356 910.388 582.507 910.464 587.041H908.12C908.12 583.737 905.929 581.7 903.085 581.7C900.241 581.7 898.05 583.66 898.05 587.003V608.943Z"
        fill="white" />
    <path
        d="M918.191 613.937H928.146V616.204H915.847V579.625H928.146V581.892H918.191V596.455H925.34V598.568H918.191V613.861V613.937Z"
        fill="white" />
    <path
        d="M934.717 604.409V616.244H932.372V579.664H938.791C943.134 579.664 946.171 582.162 946.171 587.234V596.378C946.171 601.297 943.903 603.295 940.79 603.948L946.324 616.244H943.634L938.445 604.409H934.717ZM934.717 602.181H938.599C941.75 602.181 943.903 600.567 943.903 595.994V587.234C943.903 583.506 941.674 581.931 938.599 581.931H934.717V602.181Z"
        fill="white" />
    <path d="M953.896 579.625V616.204H951.552V579.625H953.896Z" fill="white" />
    <path
        d="M971.231 607.021H962.199L960.316 616.205H957.933L965.504 579.587H967.887L975.421 616.205H973.038L971.231 607.021ZM962.583 604.908H970.924L966.734 584.121L962.583 604.908Z"
        fill="white" />
    <path
        d="M223.272 567.1C223.272 568.214 223.964 568.867 224.963 568.867C225.963 568.867 226.655 568.214 226.655 567.1V564.756H224.925V564.064H227.423V567.1C227.423 568.598 226.424 569.636 224.963 569.636C223.503 569.636 222.542 568.598 222.542 567.1V559.799C222.542 558.301 223.541 557.225 224.963 557.225C226.386 557.225 227.385 558.262 227.423 559.799H226.655C226.655 558.685 225.924 558.031 224.963 558.031C224.003 558.031 223.272 558.685 223.272 559.799V567.1Z"
        fill="white" />
    <path
        d="M229.884 557.34V567.1C229.884 568.291 230.768 568.867 231.575 568.867C232.536 568.867 233.266 568.214 233.266 567.1V557.34H234.035V567.061C234.035 568.56 232.997 569.597 231.575 569.597C230.153 569.597 229.115 568.56 229.115 567.061V557.34H229.884Z"
        fill="white" />
    <path d="M236.8 557.34V569.52H236.031V557.34H236.8Z" fill="white" />
    <path
        d="M243.068 569.52L239.609 559.645V569.52H238.84V557.34H239.532L243.029 567.33V557.34H243.798V569.52H243.106H243.068Z"
        fill="white" />
    <path
        d="M246.64 568.791H249.946V569.559H245.833V557.379H249.946V558.147H246.64V563.027H249.023V563.719H246.64V568.829V568.791Z"
        fill="white" />
    <path
        d="M255.136 566.485H252.138L251.523 569.559H250.716L253.253 557.34H254.06L256.558 569.559H255.751L255.136 566.485ZM252.253 565.793H255.021L253.637 558.877L252.253 565.793Z"
        fill="white" />
    <path
        d="M180.491 621.546H179.722C179.722 620.317 178.992 619.779 178.146 619.779C177.301 619.779 176.571 620.278 176.571 621.239C176.571 621.815 176.686 622.277 177.224 623.083L179.607 626.657C180.299 627.694 180.568 628.347 180.568 629.193C180.568 630.576 179.607 631.46 178.146 631.46C176.686 631.46 175.687 630.576 175.687 628.847H176.455C176.455 630.153 177.186 630.73 178.146 630.73C179.107 630.73 179.761 630.115 179.761 629.193C179.761 628.54 179.569 628.04 178.992 627.195L176.647 623.66C175.956 622.622 175.763 622.008 175.763 621.277C175.763 619.856 176.801 619.049 178.108 619.049C179.415 619.049 180.491 619.894 180.491 621.585V621.546Z"
        fill="white" />
    <path d="M182.836 619.126V631.306H182.067V619.126H182.836Z" fill="white" />
    <path
        d="M185.64 630.576H188.946V631.344H184.833V619.164H188.946V619.933H185.64V624.812H188.023V625.504H185.64V630.614V630.576Z"
        fill="white" />
    <path
        d="M191.177 627.387V631.344H190.408V619.164H192.561C194.021 619.164 195.021 620.009 195.021 621.7V624.736C195.021 626.388 194.252 627.041 193.214 627.272L195.059 631.383H194.175L192.445 627.425H191.215L191.177 627.387ZM191.177 626.657H192.484C193.522 626.657 194.252 626.119 194.252 624.582V621.662C194.252 620.432 193.522 619.894 192.484 619.894H191.177V626.657Z"
        fill="white" />
    <path
        d="M197.558 627.387V631.344H196.789V619.164H198.941C200.402 619.164 201.401 620.009 201.401 621.7V624.736C201.401 626.388 200.633 627.041 199.595 627.272L201.44 631.383H200.556L198.826 627.425H197.596L197.558 627.387ZM197.558 626.657H198.865C199.902 626.657 200.633 626.119 200.633 624.582V621.662C200.633 620.432 199.902 619.894 198.865 619.894H197.558V626.657Z"
        fill="white" />
    <path
        d="M206.896 628.271H203.898L203.283 631.345H202.476L205.012 619.126H205.819L208.318 631.345H207.511L206.896 628.271ZM204.013 627.579H206.78L205.397 620.663L204.013 627.579Z"
        fill="white" />
    <path d="M178.801 639.875V651.325H181.914V652.094H178.032V639.913H178.801V639.875Z" fill="white" />
    <path
        d="M184.218 651.325H187.524V652.093H183.411V639.913H187.524V640.682H184.218V645.561H186.601V646.253H184.218V651.363V651.325Z"
        fill="white" />
    <path
        d="M188.522 649.634V642.372C188.522 640.835 189.522 639.798 190.944 639.798C192.366 639.798 193.404 640.835 193.404 642.372V649.634C193.404 651.133 192.366 652.17 190.944 652.17C189.522 652.17 188.522 651.133 188.522 649.634ZM192.674 649.634V642.334C192.674 641.22 191.982 640.566 190.982 640.566C189.983 640.566 189.291 641.22 189.291 642.334V649.634C189.291 650.749 189.983 651.402 190.982 651.402C191.982 651.402 192.674 650.749 192.674 649.634Z"
        fill="white" />
    <path
        d="M199.556 652.093L196.097 642.219V652.093H195.328V639.913H196.02L199.518 649.903V639.913H200.286V652.093H199.595H199.556Z"
        fill="white" />
    <path
        d="M203.128 651.325H206.434V652.093H202.321V639.913H206.434V640.682H203.128V645.561H205.511V646.253H203.128V651.363V651.325Z"
        fill="white" />
    <path d="M284.112 728.595V740.045H287.226V740.813H283.344V728.633H284.112V728.595Z" fill="white" />
    <path d="M289.533 728.595V740.775H288.765V728.595H289.533Z" fill="white" />
    <path
        d="M291.568 728.595H293.721C295.181 728.595 296.142 729.248 296.142 730.862V732.668C296.142 733.782 295.796 734.32 295.143 734.55C295.835 734.819 296.219 735.242 296.219 736.433V738.546C296.219 740.199 295.258 740.775 293.798 740.775H291.568V728.595ZM292.337 734.243H293.913C294.835 734.243 295.335 733.936 295.335 732.591V731.092C295.335 729.824 294.797 729.363 293.682 729.363H292.299V734.243H292.337ZM293.913 734.896H292.337V740.045H293.759C294.797 740.045 295.412 739.699 295.412 738.354V736.472C295.412 735.242 294.835 734.896 293.913 734.896Z"
        fill="white" />
    <path
        d="M298.835 740.045H302.141V740.813H298.028V728.633H302.141V729.401H298.835V734.281H301.218V734.973H298.835V740.083V740.045Z"
        fill="white" />
    <path
        d="M304.328 736.855V740.813H303.56V728.633H305.712C307.173 728.633 308.172 729.478 308.172 731.169V734.204C308.172 735.856 307.403 736.51 306.365 736.74L308.21 740.852H307.326L305.597 736.894H304.367L304.328 736.855ZM304.328 736.125H305.635C306.673 736.125 307.403 735.587 307.403 734.05V731.13C307.403 729.901 306.673 729.363 305.635 729.363H304.328V736.125Z"
        fill="white" />
    <path d="M310.747 728.595V740.775H309.979V728.595H310.747Z" fill="white" />
    <path
        d="M316.517 737.74H313.519L312.904 740.813H312.097L314.633 728.595H315.441L317.939 740.813H317.132L316.517 737.74ZM313.634 737.048H316.401L315.018 730.132L313.634 737.048Z"
        fill="white" />
    <path
        d="M569.693 668.039C569.693 669.153 570.385 669.807 571.384 669.807C572.384 669.807 573.075 669.153 573.075 668.039V665.695H571.346V665.004H573.844V668.039C573.844 669.538 572.845 670.575 571.384 670.575C569.924 670.575 568.963 669.538 568.963 668.039V660.739C568.963 659.24 569.962 658.164 571.384 658.164C572.806 658.164 573.806 659.202 573.844 660.739H573.075C573.075 659.624 572.345 658.971 571.384 658.971C570.423 658.971 569.693 659.624 569.693 660.739V668.039Z"
        fill="white" />
    <path
        d="M576.42 658.279V663.889H579.572V658.279H580.341V670.46H579.572V664.581H576.42V670.46H575.651V658.279H576.42Z"
        fill="white" />
    <path
        d="M586.183 667.424H583.185L582.57 670.498H581.763L584.299 658.279H585.107L587.605 670.498H586.798L586.183 667.424ZM583.3 666.732H586.067L584.684 659.816L583.3 666.732Z"
        fill="white" />
    <path
        d="M593.214 670.46L589.755 660.585V670.46H588.986V658.279H589.678L593.176 668.269V658.279H593.945V670.46H593.253H593.214Z"
        fill="white" />
    <path
        d="M599.711 667.424H596.713L596.098 670.498H595.291L597.828 658.279H598.635L601.133 670.498H600.326L599.711 667.424ZM596.828 666.732H599.596L598.212 659.816L596.828 666.732Z"
        fill="white" />
    <path
        d="M389.966 672.996C389.966 674.494 388.929 675.532 387.506 675.532C386.084 675.532 385.085 674.494 385.085 672.996V665.734C385.085 664.197 386.084 663.159 387.506 663.159C388.929 663.159 389.966 664.197 389.966 665.734V666.156H389.198V665.695C389.198 664.581 388.506 663.928 387.506 663.928C386.507 663.928 385.815 664.581 385.815 665.695V672.996C385.815 674.11 386.507 674.763 387.506 674.763C388.506 674.763 389.198 674.11 389.198 672.996V672.496H389.966V672.957V672.996Z"
        fill="white" />
    <path
        d="M391.466 672.996V665.734C391.466 664.197 392.465 663.159 393.887 663.159C395.31 663.159 396.347 664.197 396.347 665.734V672.996C396.347 674.494 395.31 675.532 393.887 675.532C392.465 675.532 391.466 674.494 391.466 672.996ZM395.617 672.996V665.695C395.617 664.581 394.925 663.928 393.926 663.928C392.927 663.928 392.235 664.581 392.235 665.695V672.996C392.235 674.11 392.927 674.763 393.926 674.763C394.925 674.763 395.617 674.11 395.617 672.996Z"
        fill="white" />
    <path d="M399.074 675.455V664.005H397.152V663.236H401.842V664.005H399.881V675.455H399.074Z"
        fill="white" />
    <path
        d="M404.149 674.686H407.454V675.455H403.342V663.274H407.454V664.043H404.149V668.923H406.532V669.614H404.149V674.725V674.686Z"
        fill="white" />
    <path
        d="M415.949 665.926V672.727C415.949 674.494 414.949 675.455 413.489 675.455H411.183V663.274H413.489C414.949 663.274 415.949 664.197 415.949 665.964V665.926ZM413.412 664.004H411.913V674.686H413.412C414.411 674.686 415.142 674.071 415.142 672.727V665.926C415.142 664.581 414.373 664.004 413.412 664.004Z"
        fill="white" />
    <path
        d="M417.604 666.733L417.527 663.236H418.296C418.296 664.427 418.258 665.542 418.219 666.733H417.604Z"
        fill="white" />
    <path d="M420.87 663.236V675.417H420.102V663.236H420.87Z" fill="white" />
    <path
        d="M424.75 675.455L422.29 663.274H423.097L425.173 673.495L427.248 663.274H428.017L425.557 675.455H424.788H424.75Z"
        fill="white" />
    <path
        d="M429.058 672.996V665.734C429.058 664.197 430.057 663.159 431.479 663.159C432.901 663.159 433.939 664.197 433.939 665.734V672.996C433.939 674.494 432.901 675.532 431.479 675.532C430.057 675.532 429.058 674.494 429.058 672.996ZM433.209 672.996V665.695C433.209 664.581 432.517 663.928 431.518 663.928C430.518 663.928 429.826 664.581 429.826 665.695V672.996C429.826 674.11 430.518 674.763 431.518 674.763C432.517 674.763 433.209 674.11 433.209 672.996Z"
        fill="white" />
    <path d="M436.627 663.236V675.417H435.858V663.236H436.627Z" fill="white" />
    <path
        d="M439.434 671.497V675.455H438.665V663.274H440.817C442.278 663.274 443.277 664.12 443.277 665.81V668.846C443.277 670.498 442.509 671.151 441.471 671.382L443.316 675.493H442.432L440.702 671.536H439.472L439.434 671.497ZM439.434 670.767H440.741C441.778 670.767 442.509 670.229 442.509 668.692V665.772C442.509 664.542 441.778 664.004 440.741 664.004H439.434V670.767Z"
        fill="white" />
    <path
        d="M445.812 674.686H449.118V675.455H445.005V663.274H449.118V664.043H445.812V668.923H448.195V669.614H445.812V674.725V674.686Z"
        fill="white" />
    <path
        d="M485.519 505.392H487.671C489.132 505.392 490.092 506.045 490.092 507.659V509.465C490.092 510.579 489.747 511.117 489.093 511.347C489.785 511.616 490.169 512.039 490.169 513.23V515.343C490.169 516.996 489.208 517.572 487.748 517.572H485.519V505.392ZM486.287 511.04H487.863C488.786 511.04 489.285 510.733 489.285 509.388V507.889C489.285 506.621 488.747 506.16 487.633 506.16H486.249V511.04H486.287ZM487.863 511.693H486.287V516.842H487.709C488.747 516.842 489.362 516.496 489.362 515.151V513.268C489.362 512.039 488.786 511.693 487.863 511.693Z"
        fill="white" />
    <path
        d="M492.668 505.392V515.151C492.668 516.342 493.552 516.919 494.359 516.919C495.32 516.919 496.05 516.266 496.05 515.151V505.392H496.819V515.113C496.819 516.611 495.781 517.649 494.359 517.649C492.937 517.649 491.899 516.611 491.899 515.113V505.392H492.668Z"
        fill="white" />
    <path
        d="M499.587 513.652V517.61H498.818V505.43H500.971C502.431 505.43 503.431 506.275 503.431 507.966V511.001C503.431 512.653 502.662 513.307 501.624 513.537L503.469 517.649H502.585L500.855 513.691H499.625L499.587 513.652ZM499.587 512.922H500.894C501.932 512.922 502.662 512.384 502.662 510.847V507.927C502.662 506.698 501.932 506.16 500.894 506.16H499.587V512.922Z"
        fill="white" />
    <path
        d="M505.968 517.572H505.199V505.392H505.968V511.001H506.621L509.158 505.392H510.042L507.275 511.347L510.042 517.572H509.158L506.621 511.693H505.968V517.572Z"
        fill="white" />
    <path d="M512.039 505.392V517.572H511.271V505.392H512.039Z" fill="white" />
    <path
        d="M518.345 517.572L514.886 507.697V517.572H514.117V505.392H514.809L518.307 515.382V505.392H519.075V517.572H518.384H518.345Z"
        fill="white" />
    <path
        d="M524.875 514.536H521.877L521.262 517.61H520.455L522.992 505.392H523.799L526.297 517.61H525.49L524.875 514.536ZM521.993 513.845H524.76L523.376 506.929L521.993 513.845Z"
        fill="white" />
    <path
        d="M530.642 517.572H529.873V505.392H533.832V506.16H530.642V511.04H532.871V511.732H530.642V517.61V517.572Z"
        fill="white" />
    <path
        d="M538.101 514.536H535.103L534.488 517.61H533.681L536.217 505.392H537.025L539.523 517.61H538.716L538.101 514.536ZM535.218 513.845H537.985L536.602 506.929L535.218 513.845Z"
        fill="white" />
    <path
        d="M544.866 507.812H544.097C544.097 506.621 543.367 506.045 542.521 506.045C541.676 506.045 540.946 506.544 540.946 507.505C540.946 508.081 541.061 508.542 541.599 509.349L543.982 512.922C544.674 513.96 544.943 514.613 544.943 515.458C544.943 516.842 543.982 517.725 542.521 517.725C541.061 517.725 540.062 516.842 540.062 515.113H540.83C540.83 516.419 541.561 516.995 542.521 516.995C543.482 516.995 544.136 516.381 544.136 515.458C544.136 514.805 543.944 514.306 543.367 513.46L541.022 509.925C540.331 508.888 540.138 508.273 540.138 507.543C540.138 506.121 541.176 505.314 542.483 505.314C543.79 505.314 544.866 506.16 544.866 507.85V507.812Z"
        fill="white" />
    <path
        d="M546.209 515.151V507.889C546.209 506.352 547.208 505.314 548.63 505.314C550.052 505.314 551.09 506.352 551.09 507.889V515.151C551.09 516.65 550.052 517.687 548.63 517.687C547.208 517.687 546.209 516.65 546.209 515.151ZM550.36 515.151V507.85C550.36 506.736 549.668 506.083 548.669 506.083C547.669 506.083 546.978 506.736 546.978 507.85V515.151C546.978 516.265 547.669 516.919 548.669 516.919C549.668 516.919 550.36 516.265 550.36 515.151Z"
        fill="white" />
    <path d="M88.0907 443.528V432.078H86.1689V431.31H90.8581V432.078H88.8979V443.528H88.0907Z"
        fill="white" />
    <path
        d="M93.1652 431.348V436.958H96.3169V431.348H97.0856V443.528H96.3169V437.649H93.1652V443.528H92.3965V431.348H93.1652Z"
        fill="white" />
    <path
        d="M99.9663 442.798H103.272V443.566H99.1592V431.386H103.272V432.154H99.9663V437.034H102.349V437.726H99.9663V442.836V442.798Z"
        fill="white" />
    <path
        d="M107.502 441.107C107.502 442.222 108.193 442.875 109.193 442.875C110.192 442.875 110.884 442.222 110.884 441.107V438.763H109.154V438.072H111.653V441.107C111.653 442.606 110.653 443.643 109.193 443.643C107.732 443.643 106.771 442.606 106.771 441.107V433.807C106.771 432.308 107.771 431.232 109.193 431.232C110.615 431.232 111.614 432.27 111.653 433.807H110.884C110.884 432.693 110.154 432.039 109.193 432.039C108.232 432.039 107.502 432.693 107.502 433.807V441.107Z"
        fill="white" />
    <path
        d="M117.07 440.493H114.073L113.458 443.566H112.65L115.187 431.348H115.994L118.493 443.566H117.685L117.07 440.493ZM114.188 439.801H116.955L115.572 432.885L114.188 439.801Z"
        fill="white" />
    <path
        d="M122.874 441.107C123.643 437.841 124.411 434.575 125.18 431.348H125.91V443.528H125.142V434.345L123.181 442.529H122.605L120.645 434.383V443.566H119.876V431.386H120.606L122.874 441.146V441.107Z"
        fill="white" />
    <path
        d="M128.024 431.348H130.177C131.637 431.348 132.598 432.001 132.598 433.615V435.421C132.598 436.535 132.252 437.073 131.599 437.303C132.291 437.572 132.675 437.995 132.675 439.186V441.299C132.675 442.952 131.714 443.528 130.254 443.528H128.024V431.348ZM128.793 436.996H130.369C131.291 436.996 131.791 436.689 131.791 435.344V433.845C131.791 432.577 131.253 432.116 130.138 432.116H128.755V436.996H128.793ZM130.369 437.649H128.793V442.798H130.215C131.253 442.798 131.868 442.452 131.868 441.107V439.225C131.868 437.995 131.291 437.649 130.369 437.649Z"
        fill="white" />
    <path d="M135.253 431.348V443.528H134.484V431.348H135.253Z" fill="white" />
    <path
        d="M141.018 440.493H138.02L137.405 443.566H136.598L139.134 431.348H139.942L142.44 443.566H141.633L141.018 440.493ZM138.135 439.801H140.902L139.519 432.885L138.135 439.801Z"
        fill="white" />
    <path d="M653.136 662.737V651.287H651.214V650.519H655.903V651.287H653.943V662.737H653.136Z"
        fill="white" />
    <path
        d="M656.671 660.278V653.016C656.671 651.479 657.67 650.441 659.092 650.441C660.514 650.441 661.552 651.479 661.552 653.016V660.278C661.552 661.776 660.514 662.814 659.092 662.814C657.67 662.814 656.671 661.776 656.671 660.278ZM660.822 660.278V652.977C660.822 651.863 660.13 651.21 659.131 651.21C658.131 651.21 657.44 651.863 657.44 652.977V660.278C657.44 661.392 658.131 662.045 659.131 662.045C660.13 662.045 660.822 661.392 660.822 660.278Z"
        fill="white" />
    <path
        d="M664.053 660.316C664.053 661.43 664.744 662.084 665.744 662.084C666.743 662.084 667.435 661.43 667.435 660.316V657.972H665.705V657.281H668.204V660.316C668.204 661.815 667.204 662.852 665.744 662.852C664.283 662.852 663.322 661.815 663.322 660.316V653.054C663.322 651.555 664.322 650.479 665.744 650.479C667.166 650.479 668.165 651.517 668.204 653.054H667.435C667.435 651.94 666.705 651.286 665.744 651.286C664.783 651.286 664.053 651.94 664.053 653.054V660.354V660.316Z"
        fill="white" />
    <path
        d="M669.778 660.278V653.016C669.778 651.479 670.778 650.441 672.2 650.441C673.622 650.441 674.66 651.479 674.66 653.016V660.278C674.66 661.776 673.622 662.814 672.2 662.814C670.778 662.814 669.778 661.776 669.778 660.278ZM673.929 660.278V652.977C673.929 651.863 673.238 651.21 672.238 651.21C671.239 651.21 670.547 651.863 670.547 652.977V660.278C670.547 661.392 671.239 662.045 672.238 662.045C673.238 662.045 673.929 661.392 673.929 660.278Z"
        fill="white" />
    <path
        d="M76.1375 392.462H75.3688C75.3688 391.271 74.6385 390.695 73.7929 390.695C72.9473 390.695 72.217 391.194 72.217 392.155C72.217 392.731 72.3323 393.192 72.8704 393.999L75.2535 397.573C75.9453 398.61 76.2144 399.263 76.2144 400.109C76.2144 401.492 75.2535 402.376 73.7929 402.376C72.3323 402.376 71.333 401.492 71.333 399.763H72.1017C72.1017 401.069 72.832 401.646 73.7929 401.646C74.7538 401.646 75.4072 401.031 75.4072 400.109C75.4072 399.456 75.215 398.956 74.6385 398.111L72.2939 394.576C71.6021 393.538 71.4099 392.923 71.4099 392.193C71.4099 390.772 72.4476 389.965 73.7545 389.965C75.0613 389.965 76.1375 390.81 76.1375 392.501V392.462Z"
        fill="white" />
    <path
        d="M78.4419 401.492H81.7474V402.26H77.6348V390.08H81.7474V390.849H78.4419V395.728H80.8249V396.42H78.4419V401.53V401.492Z"
        fill="white" />
    <path
        d="M87.4369 402.222L83.9777 392.347V402.222H83.209V390.042H83.9008L87.3985 400.032V390.042H88.1672V402.222H87.4754H87.4369Z"
        fill="white" />
    <path
        d="M91.0112 401.492H94.3167V402.26H90.2041V390.08H94.3167V390.849H91.0112V395.728H93.3943V396.42H91.0112V401.53V401.492Z"
        fill="white" />
    <path
        d="M96.0477 399.802C96.0477 400.916 96.7395 401.569 97.7388 401.569C98.7382 401.569 99.43 400.916 99.43 399.802V397.458H97.7004V396.766H100.199V399.802C100.199 401.3 99.1994 402.338 97.7388 402.338C96.2783 402.338 95.3174 401.3 95.3174 399.802V392.501C95.3174 391.003 96.3167 389.927 97.7388 389.927C99.161 389.927 100.16 390.964 100.199 392.501H99.43C99.43 391.387 98.6997 390.734 97.7388 390.734C96.7779 390.734 96.0477 391.387 96.0477 392.501V399.802Z"
        fill="white" />
    <path
        d="M105.614 399.187H102.616L102.001 402.261H101.194L103.731 390.042H104.538L107.037 402.261H106.229L105.614 399.187ZM102.732 398.495H105.499L104.115 391.579L102.732 398.495Z"
        fill="white" />
    <path d="M109.153 390.042V401.492H112.267V402.261H108.385V390.08H109.153V390.042Z" fill="white" />
    <path
        d="M696.183 562.45H698.335C699.796 562.45 700.756 563.103 700.756 564.717V566.523C700.756 567.637 700.411 568.175 699.757 568.406C700.449 568.675 700.833 569.097 700.833 570.289V572.402C700.833 574.054 699.872 574.63 698.412 574.63H696.183V562.45ZM696.951 568.099H698.527C699.45 568.099 699.949 567.791 699.949 566.446V564.948C699.949 563.68 699.411 563.219 698.297 563.219H696.913V568.099H696.951ZM698.527 568.752H696.951V573.9H698.373C699.411 573.9 700.026 573.555 700.026 572.21V570.327C700.026 569.097 699.45 568.752 698.527 568.752Z"
        fill="white" />
    <path
        d="M703.409 573.862H706.714V574.63H702.602V562.45H706.714V563.219H703.409V568.099H705.792V568.79H703.409V573.9V573.862Z"
        fill="white" />
    <path
        d="M712.402 574.63L708.943 564.756V574.63H708.174V562.45H708.866L712.363 572.44V562.45H713.132V574.63H712.44H712.402Z"
        fill="white" />
    <path d="M715.979 562.45V574.63H715.21V562.45H715.979Z" fill="white" />
    <path
        d="M722.283 574.63L718.824 564.756V574.63H718.055V562.45H718.747L722.244 572.44V562.45H723.013V574.63H722.321H722.283Z"
        fill="white" />
</svg>
    