<svg width="101" height="100" viewBox="0 0 101 100" fill="none" xmlns="http://www.w3.org/2000/svg">
<g clip-path="url(#clip0_1_452)">
<path d="M50.4867 99.9735C78.0937 99.9735 100.473 77.5937 100.473 49.9867C100.473 22.3798 78.0937 0 50.4867 0C22.8798 0 0.5 22.3798 0.5 49.9867C0.5 77.5937 22.8798 99.9735 50.4867 99.9735Z" fill="#E6E6E6"/>
<path d="M91.5099 44.1523H9.48926L65.4426 97.719C84.9334 91.6199 99.2533 73.8792 100.367 52.6382L91.5099 44.1523Z" fill="#D0D0D0"/>
<path d="M68.0682 59.8008H32.9316V64.2028H68.0682V59.8008Z" fill="#0D975F"/>
<path d="M68.0682 46.1699H32.9316V59.8003H68.0682V46.1699Z" fill="#00834F"/>
<path d="M68.0684 64.2028C68.0684 67.6767 60.1925 70.4876 50.4868 70.4876C40.7812 70.4876 32.9053 67.6767 32.9053 64.2028C32.9053 60.7289 40.7812 57.918 50.4868 57.918C60.1925 57.918 68.0684 60.7289 68.0684 64.2028Z" fill="#0D975F"/>
<path d="M68.0684 59.8004C68.0684 63.2743 60.1925 66.0852 50.4868 66.0852C40.7812 66.0852 32.9053 63.2743 32.9053 59.8004C32.9053 56.3265 40.7812 53.5156 50.4868 53.5156C60.1925 53.5156 68.0684 56.3265 68.0684 59.8004Z" fill="#00834F"/>
<path d="M9.48926 44.1537L50.4863 58.7917L91.5099 44.1537L50.4863 29.5156L9.48926 44.1537Z" fill="#0D975F"/>
<path d="M69.5527 52.0021V70.4853L71.0112 68.4964L72.4697 69.4246V50.9414L69.5527 52.0021Z" fill="white"/>
<path d="M69.553 52.0039L48.9219 44.6319L51.8654 43.5977L72.47 50.9432L69.553 52.0039Z" fill="white"/>
<path d="M53.191 44.1539C53.191 44.6842 51.9711 45.1085 50.4861 45.1085C49.0011 45.1085 47.7812 44.6842 47.7812 44.1539C47.7812 43.6235 49.0011 43.1992 50.4861 43.1992C51.9711 43.1992 53.191 43.6235 53.191 44.1539Z" fill="#00834F"/>
</g>
<defs>
<clipPath id="clip0_1_452">
<rect width="100" height="100" fill="white" transform="translate(0.5)"/>
</clipPath>
</defs>
</svg>
