<svg width="101" height="100" viewBox="0 0 101 100" fill="none" xmlns="http://www.w3.org/2000/svg">
<g clip-path="url(#clip0_1_478)">
<path fill-rule="evenodd" clip-rule="evenodd" d="M0.5 50C0.5 22.3845 22.8734 0 50.5 0C78.1266 0 100.5 22.3845 100.5 50C100.5 77.6155 78.1266 100 50.5 100C22.8734 100 0.5 77.6155 0.5 50Z" fill="#E6E6E6"/>
<path fill-rule="evenodd" clip-rule="evenodd" d="M100.43 53.4866L67.3854 19.9805H33.6612V24.9522H33.4736L25.8517 36.7571L25.6641 40.6449C25.4764 42.0116 26.0158 43.3311 26.9305 43.9908C27.1181 44.2265 33.5909 50.6355 33.6612 50.7533V73.6562L59.6228 99.2453C81.8554 95.169 98.9755 76.4838 100.476 53.463H100.406" fill="#D0D0D0"/>
<path fill-rule="evenodd" clip-rule="evenodd" d="M33.3564 20.0039H66.9165V73.5619H33.3564V20.0039Z" fill="#00834F"/>
<path fill-rule="evenodd" clip-rule="evenodd" d="M66.9165 49.9529V37.8652H33.3564V49.8822C34.6229 49.4816 35.6313 48.2799 35.8189 46.9133C35.6313 48.6334 36.7805 50 38.3987 50C40.0169 50 41.4005 48.6334 41.5178 46.9133C41.4005 48.6334 42.6435 50 44.2617 50C45.8799 50 47.1932 48.6334 47.1932 46.9133C47.1932 48.6334 48.4596 50 50.0544 50C51.6491 50 52.9155 48.6334 52.9155 46.9133C52.9155 48.6334 54.2992 50 55.9174 50C57.5356 50 58.7317 48.6334 58.6144 46.9133C58.7317 48.6334 60.1154 50 61.7336 50C63.3518 50 64.4775 48.6334 64.3133 46.9133C64.5009 48.3978 65.5797 49.6701 66.9399 49.9529" fill="#4D4D4D"/>
<path fill-rule="evenodd" clip-rule="evenodd" d="M36.2178 25H64.0789V66.4232H36.2178V25Z" fill="#B3B3B3"/>
<path fill-rule="evenodd" clip-rule="evenodd" d="M36.2178 48.6806C36.7103 49.4818 37.4842 50.0001 38.4457 50.0001C40.0639 50.0001 41.4711 48.6335 41.5883 46.9134C41.4711 48.6335 42.7375 50.0001 44.3557 50.0001C45.9739 50.0001 47.3106 48.6335 47.3106 46.9134C47.3106 48.6335 48.5771 50.0001 50.1953 50.0001C51.8135 50.0001 53.0799 48.6335 53.0799 46.9134C53.0799 48.6335 54.4636 50.0001 56.1052 50.0001C57.7469 50.0001 58.9429 48.6335 58.8257 46.9134C58.9429 48.6335 60.3266 50.0001 61.9682 50.0001C62.8829 50.0001 63.6568 49.5524 64.0789 48.8456V37.8418H36.2178V48.6571" fill="#7F7F7F"/>
<path fill-rule="evenodd" clip-rule="evenodd" d="M25.9453 36.4277L25.7811 40.292C25.4997 42.4362 26.813 44.2741 28.7595 44.2741C30.7061 44.2741 32.3477 42.4362 32.5822 40.292L32.6291 36.4277H25.9453Z" fill="#B3B3B3"/>
<path fill-rule="evenodd" clip-rule="evenodd" d="M32.9348 36.4277L32.8879 40.292C32.6533 42.4362 34.0605 44.2741 35.9835 44.2741C37.9066 44.2741 39.6186 42.4362 39.7828 40.292V36.4277H32.9348Z" fill="#0D975F"/>
<path fill-rule="evenodd" clip-rule="evenodd" d="M39.9695 36.4277V40.292C39.7819 42.4362 41.3298 44.2741 43.2763 44.2741C45.2228 44.2741 46.8879 42.4362 46.9348 40.292V36.4277H39.9695Z" fill="#B3B3B3"/>
<path fill-rule="evenodd" clip-rule="evenodd" d="M46.9818 36.4277V40.292C46.9114 42.4362 48.4827 44.2741 50.523 44.2741C52.5634 44.2741 54.0643 42.4362 54.0643 40.292L53.994 36.4277H46.9818Z" fill="#0D975F"/>
<path fill-rule="evenodd" clip-rule="evenodd" d="M54.0645 36.4277L54.1348 40.292C54.1348 42.4362 55.7765 44.2741 57.7464 44.2741C59.7164 44.2741 61.2408 42.4362 61.1001 40.292L61.0297 36.4277H54.0645Z" fill="#B3B3B3"/>
<path fill-rule="evenodd" clip-rule="evenodd" d="M61.2178 36.4277L61.2647 40.292C61.3819 42.4362 63.0705 44.2741 65.017 44.2741C66.9636 44.2741 68.3472 42.4362 68.1831 40.292L68.0658 36.4277H61.2178Z" fill="#0D975F"/>
<path fill-rule="evenodd" clip-rule="evenodd" d="M68.3467 36.4277L68.464 40.292C68.6281 42.4362 70.3401 44.2741 72.2867 44.2741C74.2332 44.2741 75.4762 42.4362 75.1947 40.292L75.0775 36.4277H68.3232" fill="#B3B3B3"/>
<path fill-rule="evenodd" clip-rule="evenodd" d="M38.3513 25H33.614L26.2031 36.4279H33.0277L38.3513 25Z" fill="white"/>
<path fill-rule="evenodd" clip-rule="evenodd" d="M43.3475 25H38.3053L32.6533 36.4279H39.9L43.3475 25Z" fill="#27A870"/>
<path fill-rule="evenodd" clip-rule="evenodd" d="M48.3657 25H43.2531L39.7822 36.4279H47.24L48.3657 25Z" fill="white"/>
<path fill-rule="evenodd" clip-rule="evenodd" d="M52.9862 25H48.0143L46.9355 36.4279H54.065L52.9862 25Z" fill="#27A870"/>
<path fill-rule="evenodd" clip-rule="evenodd" d="M57.7229 25H52.6338L53.7595 36.4279H61.2173L57.7229 25Z" fill="white"/>
<path fill-rule="evenodd" clip-rule="evenodd" d="M62.6955 25H57.6299L61.0773 36.4279H68.3475L62.6955 25Z" fill="#27A870"/>
<path fill-rule="evenodd" clip-rule="evenodd" d="M67.6203 25H62.6484L68.23 36.4279H75.5002L67.6203 25Z" fill="white"/>
<path fill-rule="evenodd" clip-rule="evenodd" d="M60.6787 67.9086C59.5296 63.0311 55.144 59.3789 49.9142 59.3789C44.6843 59.3789 40.2519 63.0311 39.1027 67.9086H38.7979V70.4769C38.7979 76.5797 43.7697 81.5749 49.9142 81.5749C56.0586 81.5749 60.9836 76.5797 60.9836 70.4769V67.9086H60.6787Z" fill="#7F7F7F"/>
<path d="M61.007 68.8735C61.007 75.0234 56.0586 79.9951 49.9376 79.9951C43.8166 79.9951 38.8682 75.0234 38.8682 68.8735C38.8682 62.7237 43.8166 57.752 49.9376 57.752C56.0586 57.752 61.007 62.7237 61.007 68.8735Z" fill="#27A870"/>
<path d="M58.6153 68.8743C58.6153 73.6811 54.7457 77.5689 49.9615 77.5689C45.1772 77.5689 41.3076 73.6811 41.3076 68.8743C41.3076 64.0675 45.1772 60.1797 49.9615 60.1797C54.7457 60.1797 58.6153 64.0675 58.6153 68.8743Z" fill="#E6E6E6"/>
<path d="M49.9375 67.9067C49.4216 67.9067 48.7884 67.7653 48.7884 67.1056C48.7884 66.6815 49.3278 66.3045 49.9375 66.3045C50.5473 66.3045 51.0867 66.6815 51.0867 67.1056H53.0801C53.0801 65.8803 52.1889 64.8436 50.946 64.4666V63.4062H48.9525V64.4666C47.7096 64.8436 46.8184 65.8803 46.8184 67.1056C46.8184 68.4487 47.8034 69.886 49.9375 69.886C50.2893 69.886 51.0867 69.9567 51.0867 70.6871C51.0867 71.1112 50.5473 71.4882 49.9375 71.4882C49.3278 71.4882 48.7884 71.1112 48.7884 70.6871H46.7949C46.7949 71.9124 47.6861 72.9491 48.9291 73.3261V74.6221H50.9225V73.3261C52.1655 72.9491 53.0566 71.9124 53.0566 70.6871C53.0566 69.0377 51.7668 67.9067 49.9375 67.9067Z" fill="#00834F"/>
<path d="M38.8916 68.8734C38.8916 75.0233 43.84 79.995 49.961 79.995V57.7754C43.84 57.7754 38.8916 62.7471 38.8916 68.897V68.8734Z" fill="#40B27E"/>
<path d="M49.938 60.1798C45.1538 60.1798 41.2842 64.0677 41.2842 68.8744C41.2842 73.6812 45.1538 77.5691 49.938 77.5691V60.1562V60.1798Z" fill="white"/>
<path d="M49.9375 69.8861V67.8833C49.4215 67.8833 48.7883 67.7419 48.7883 67.0822C48.7883 66.658 49.3277 66.281 49.9375 66.281V63.3828H48.9525V64.4431C47.7095 64.8201 46.8184 65.8569 46.8184 67.0822C46.8184 68.4252 47.8033 69.8625 49.9375 69.8625V69.8861Z" fill="#1E965F"/>
<path d="M49.9375 74.6225V71.4886C49.3278 71.4886 48.7884 71.1116 48.7884 70.6875H46.7949C46.7949 71.9128 47.6861 72.9495 48.9291 73.3265V74.6225H49.9141H49.9375Z" fill="#1E965F"/>
</g>
<defs>
<clipPath id="clip0_1_478">
<rect width="100" height="100" fill="white" transform="translate(0.5)"/>
</clipPath>
</defs>
</svg>
