<svg width="100" height="100" viewBox="0 0 100 100" fill="none" xmlns="http://www.w3.org/2000/svg">
    <g clip-path="url(#clip0_1_465)">
        <path
            d="M50.0153 100.031C77.638 100.031 100.031 77.638 100.031 50.0153C100.031 22.3926 77.638 0 50.0153 0C22.3926 0 0 22.3926 0 50.0153C0 77.638 22.3926 100.031 50.0153 100.031Z"
            fill="#E6E6E6" />
        <path
            d="M21.7056 33.6285L29.8682 29.1956L36.7774 28.7981L46.1935 38.2142L47.1106 27.4836L52.2467 23.601L56.6796 21.4609L77.7129 42.4943L77.0098 34.3316L77.132 26.7804L99.9691 49.6175C99.9691 49.6175 99.9691 49.862 99.9691 49.9843C99.9691 74.0442 82.9407 94.1604 60.287 98.9296L40.66 79.3026L38.734 74.7474L17.1504 53.1638L21.675 46.3157V33.6285H21.7056Z"
            fill="#D0D0D0" />
        <path
            d="M77.4074 47.6918C79.3335 40.2323 78.2634 31.1525 77.6826 28.2787C76.8572 24.121 71.9657 22.5924 71.7517 22.5312L71.0791 24.7018L71.4154 23.6013L71.0791 24.7018C71.0791 24.7018 74.9006 25.9247 75.4509 28.7373C75.9706 31.2748 77.01 40.11 75.2063 47.1415L77.4074 47.7223V47.6918Z"
            fill="white" />
        <path
            d="M46.2863 47.6918C44.3603 40.2323 45.4303 31.1525 46.0112 28.2787C46.8366 24.121 51.7281 22.5924 51.9421 22.5312L52.6146 24.7018L52.2784 23.6013L52.6146 24.7018C52.6146 24.7018 48.7932 25.9247 48.2429 28.7373C47.7232 31.2748 46.6837 40.11 48.4875 47.1415L46.2863 47.7223V47.6918Z"
            fill="white" />
        <path
            d="M67.5756 24.5416L70.1802 25.6029C71.134 25.9916 72.2223 25.5334 72.6109 24.5796L73.0032 23.6171C73.3918 22.6633 72.9337 21.575 71.9799 21.1863L69.3752 20.125C68.4215 19.7363 67.3332 20.1945 66.9445 21.1483L66.5523 22.1108C66.1636 23.0646 66.6218 24.1529 67.5756 24.5416Z"
            fill="#CDCDCE" />
        <path
            d="M54.1373 20.1666L51.5327 21.2279C50.5789 21.6166 50.1207 22.7048 50.5094 23.6586L50.9016 24.6212C51.2903 25.575 52.3786 26.0332 53.3323 25.6445L55.937 24.5832C56.8908 24.1945 57.3489 23.1062 56.9603 22.1524L56.568 21.1899C56.1794 20.2361 55.0911 19.7779 54.1373 20.1666Z"
            fill="#CDCDCE" />
        <path
            d="M30.5106 26.7812C36.472 26.7812 41.3329 31.6421 41.3329 37.6036L41.2718 70.3765C41.2718 75.4208 45.3684 79.5174 50.4127 79.5174C55.4571 79.5174 59.5537 75.4208 59.5537 70.3765V61.5413C57.0774 61.1744 52.7056 59.8598 48.8841 55.1824C47.3556 53.3175 46.1633 50.8412 45.399 47.8757L49.0676 46.928C49.7096 49.3737 50.6267 51.3303 51.819 52.7978C56.1908 58.1172 61.1434 57.9032 61.3268 57.9032H62.2134C62.4274 57.9032 67.38 58.1172 71.7518 52.7978C72.9441 51.3609 73.8612 49.3737 74.5032 46.928L78.1718 47.8757C77.4075 50.8717 76.2458 53.3175 74.6866 55.1824C70.4983 60.2878 65.668 61.3884 63.3751 61.633V70.3765C63.3751 77.4997 57.5665 83.3083 50.4433 83.3083C43.3201 83.3083 37.5115 77.4997 37.5115 70.3765L37.5726 45.4606V37.6036C37.5726 33.721 34.4237 30.5721 30.5411 30.5721C26.6585 30.5721 23.5096 33.721 23.5096 37.6036V46.8974H19.7188V37.6036C19.7188 31.6421 24.5796 26.7812 30.5411 26.7812H30.5106Z"
            fill="#00834F" />
        <path
            d="M16.3867 49.9555C16.3867 52.921 18.7713 55.3056 21.7368 55.3056C24.7022 55.3056 27.0868 52.921 27.0868 49.9555C27.0868 46.9901 24.7022 44.6055 21.7368 44.6055C18.7713 44.6055 16.3867 46.9901 16.3867 49.9555Z"
            fill="white" />
        <g opacity="0.15">
            <path opacity="0.15"
                d="M19.6572 45.002V37.6036C19.6572 31.6421 24.5181 26.7812 30.4796 26.7812C36.4411 26.7812 41.302 31.6421 41.302 37.6036L41.2408 70.3765C41.2408 75.4208 45.3374 79.5174 50.3818 79.5174C53.0721 79.5174 55.5178 78.3251 57.1992 76.4603V81.3517C55.2121 82.5746 52.8886 83.3083 50.3818 83.3083C43.2586 83.3083 37.4499 77.4997 37.4499 70.3765L37.5111 45.4606V37.6036C37.5111 33.721 34.3622 30.5721 30.4796 30.5721C26.597 30.5721 23.4481 33.721 23.4481 37.6036V44.8797C25.5575 45.6134 27.0556 47.6006 27.0556 49.924C27.0556 52.8895 24.671 55.2741 21.7055 55.2741C18.7401 55.2741 16.3555 52.8895 16.3555 49.924C16.3555 47.6923 17.7006 45.7968 19.6572 45.002Z"
                fill="white" />
            <path opacity="0.15"
                d="M49.0673 46.9275C49.7094 49.3733 50.6265 51.3298 51.8188 52.7973C53.6531 55.029 55.5791 56.2825 57.23 56.9856V61.0211C54.8148 60.2568 51.7271 58.6365 48.8839 55.2124C47.3553 53.3476 46.163 50.8713 45.3987 47.9058L46.2853 47.6918C44.3593 40.2323 45.4293 31.1831 46.0102 28.3399C46.5605 25.5885 48.9145 23.9682 50.4736 23.2039C50.4736 22.3479 50.9934 21.5224 51.8188 21.1556L53.8365 20.3302C54.9677 19.8716 56.2211 20.4219 56.6797 21.5224L56.8326 21.8893C57.2911 22.9899 56.7408 24.2739 55.6403 24.7325L53.6225 25.5579C52.8582 25.8636 52.0328 25.7108 51.4519 25.2216C50.2902 25.8025 48.6088 26.9642 48.2419 28.7679C47.7222 31.3054 46.6828 40.11 48.4865 47.111L49.0673 46.9581V46.9275Z"
                fill="white" />
        </g>
    </g>
    <defs>
        <clipPath id="clip0_1_465">
            <rect width="100" height="100" fill="white" />
        </clipPath>
    </defs>
</svg>