<svg width="101" height="100" viewBox="0 0 101 100" fill="none" xmlns="http://www.w3.org/2000/svg">
<g clip-path="url(#clip0_1_510)">
<path d="M100.5 50C100.5 22.3858 78.1142 0 50.5 0C22.8858 0 0.5 22.3858 0.5 50C0.5 77.6142 22.8858 100 50.5 100C78.1142 100 100.5 77.6142 100.5 50Z" fill="#E6E6E6"/>
<path d="M100.389 52.9769C98.8459 51.4333 77.0984 29.6583 77.0157 29.6031C76.8228 29.3275 76.5196 29.1621 76.1888 29.1621H24.8106C24.2594 29.1621 23.8183 29.6031 23.8183 30.1544V62.6241C23.8183 62.6241 23.8184 62.7895 23.8459 62.8721H21.255C20.8415 62.8721 20.5107 63.2029 20.5107 63.6164V65.9592C20.5107 66.2349 20.6761 66.4554 20.8966 66.5932C20.9518 66.7035 51.7952 97.5193 54.1105 99.8622C79.0554 98.0706 98.9286 78.0044 100.389 52.9769Z" fill="#D0D0D0"/>
<path d="M76.2164 29.1348H24.8106C24.2626 29.1348 23.8184 29.579 23.8184 30.127V62.6243C23.8184 63.1723 24.2626 63.6166 24.8106 63.6166H76.2164C76.7644 63.6166 77.2087 63.1723 77.2087 62.6243V30.127C77.2087 29.579 76.7644 29.1348 76.2164 29.1348Z" fill="#7F7F7F"/>
<path d="M74.0941 31.2305H26.878C26.33 31.2305 25.8857 31.6747 25.8857 32.2228V59.8413C25.8857 60.3893 26.33 60.8336 26.878 60.8336H74.0941C74.6422 60.8336 75.0864 60.3893 75.0864 59.8413V32.2228C75.0864 31.6747 74.6422 31.2305 74.0941 31.2305Z" fill="white"/>
<path d="M80.2337 63H21.7442C21.3332 63 21 63.3332 21 63.7442V66.0871C21 66.4981 21.3332 66.8313 21.7442 66.8313H80.2337C80.6448 66.8313 80.978 66.4981 80.978 66.0871V63.7442C80.978 63.3332 80.6448 63 80.2337 63Z" fill="#B3B3B3"/>
<path d="M44.6291 62.873H56.3436C56.3436 63.9205 55.4891 64.8025 54.4141 64.8025H46.531C45.4836 64.8025 44.6016 63.948 44.6016 62.873H44.6291Z" fill="#4D4D4D"/>
<path d="M70.3732 51.5156H30.6543V52.563H70.3732V51.5156Z" fill="#D0D0D0"/>
<path d="M70.3732 47.3535H30.6543V48.4009H70.3732V47.3535Z" fill="#D0D0D0"/>
<path d="M70.3732 43.1641H30.6543V44.2115H70.3732V43.1641Z" fill="#D0D0D0"/>
<path d="M70.3732 39.002H30.6543V40.0494H70.3732V39.002Z" fill="#D0D0D0"/>
<path d="M70.8696 56.7252H30.1309V34.8398H70.8971V56.7252H70.8696ZM31.1507 55.6778H69.8221V35.8597H31.1507V55.6778Z" fill="#D0D0D0"/>
<path d="M67.4521 53.1153L62.5183 45.9764L58.9626 50.4141L50.9417 38.5618L46.0078 45.9212L43.3617 42.1175L37.0773 51.048L33.9902 47.1892L31.0133 50.5243C30.8204 50.7448 30.4896 50.7448 30.2691 50.5795C30.0486 50.3865 30.021 50.0557 30.214 49.8352L34.0177 45.5629L36.9946 49.3115L43.3342 40.2983L45.9803 44.0745L50.9417 36.6875L59.0177 48.65L62.5459 44.2123L67.5073 51.4064L69.9328 48.5949C70.1258 48.3744 70.4565 48.3468 70.6771 48.5398C70.8976 48.7327 70.9251 49.0635 70.7322 49.284L67.4246 53.1153H67.4521Z" fill="#00834F"/>
</g>
<defs>
<clipPath id="clip0_1_510">
<rect width="100" height="100" fill="white" transform="translate(0.5)"/>
</clipPath>
</defs>
</svg>
