<svg width="70" height="70" viewBox="0 0 70 70" fill="none" xmlns="http://www.w3.org/2000/svg">
<g id="Frame" clip-path="url(#clip0_1_14589)">
<path id="Vector" d="M0 34.99C0 54.3224 15.6776 69.98 34.99 69.98C54.3024 69.98 69.98 54.3024 69.98 34.99C69.98 15.6776 54.3224 0 34.99 0C15.6576 0 0 15.6776 0 34.99Z" fill="#E6E6E6"/>
<path id="Vector_2" d="M34.99 56.9189L46.7332 67.9631C60.2739 63.13 69.98 50.2084 69.98 34.9902C69.98 34.8104 69.98 34.6507 69.98 34.4909L47.3723 12.2427L35.01 56.9189H34.99Z" fill="#D0D0D0"/>
<g id="Group">
<path id="Vector_3" d="M52.4851 25.3236C52.4851 39.2437 37.6863 56.9784 34.9901 56.9784C32.294 56.9784 17.4951 37.626 17.4951 25.3236C17.4951 15.6574 25.3239 7.82861 34.9901 7.82861C44.6563 7.82861 52.4851 15.6574 52.4851 25.3236Z" fill="#00834F"/>
<path id="Vector_4" d="M47.1927 25.3237C47.1927 32.054 41.7206 37.5262 34.9902 37.5262C28.2598 37.5262 22.7876 32.054 22.7876 25.3237C22.7876 18.5933 28.2598 13.1211 34.9902 13.1211C41.7206 13.1211 47.1927 18.5933 47.1927 25.3237Z" fill="#0D975F"/>
<path id="Vector_5" d="M41.1953 32.5159C45.1721 29.0881 45.6171 23.0854 42.1893 19.1086C38.7614 15.1318 32.7588 14.6868 28.7819 18.1146C24.8051 21.5425 24.3601 27.5451 27.788 31.5219C31.2158 35.4987 37.2185 35.9438 41.1953 32.5159Z" fill="white"/>
</g>
</g>
<defs>
<clipPath id="clip0_1_14589">
<rect width="70" height="70" fill="white"/>
</clipPath>
</defs>
</svg>
