<svg width="40" height="40" viewBox="0 0 40 40" fill="none" xmlns="http://www.w3.org/2000/svg">
<g clip-path="url(#clip0_105_5127)">
<path fill-rule="evenodd" clip-rule="evenodd" d="M0 20C0 8.95382 8.94934 0 20 0C31.0507 0 40 8.95382 40 20C40 31.0462 31.0507 40 20 40C8.94934 40 0 31.0462 0 20Z" fill="#E2E2E2"/>
<path fill-rule="evenodd" clip-rule="evenodd" d="M39.9718 21.3946L26.7542 7.99219H13.2645V9.98088H13.1895L10.1407 14.7028L10.0656 16.258C9.99058 16.8046 10.2063 17.3324 10.5722 17.5963C10.6472 17.6906 13.2364 20.2542 13.2645 20.3013V29.4625L23.6491 39.6981C32.5422 38.0676 39.3902 30.5935 39.9906 21.3852H39.9624" fill="#D0D0D0"/>
<path fill-rule="evenodd" clip-rule="evenodd" d="M13.1426 8.00195H26.5666V29.4251H13.1426V8.00195Z" fill="#00834F"/>
<path fill-rule="evenodd" clip-rule="evenodd" d="M26.5666 19.9815V15.1465H13.1426V19.9533C13.6491 19.793 14.0525 19.3124 14.1276 18.7657C14.0525 19.4537 14.5122 20.0004 15.1595 20.0004C15.8067 20.0004 16.3602 19.4537 16.4071 18.7657C16.3602 19.4537 16.8574 20.0004 17.5047 20.0004C18.152 20.0004 18.6773 19.4537 18.6773 18.7657C18.6773 19.4537 19.1839 20.0004 19.8218 20.0004C20.4597 20.0004 20.9662 19.4537 20.9662 18.7657C20.9662 19.4537 21.5197 20.0004 22.167 20.0004C22.8142 20.0004 23.2927 19.4537 23.2458 18.7657C23.2927 19.4537 23.8461 20.0004 24.4934 20.0004C25.1407 20.0004 25.591 19.4537 25.5253 18.7657C25.6004 19.3595 26.0319 19.8684 26.576 19.9815" fill="#4D4D4D"/>
<path fill-rule="evenodd" clip-rule="evenodd" d="M14.2871 10H25.4316V26.5693H14.2871V10Z" fill="#B3B3B3"/>
<path fill-rule="evenodd" clip-rule="evenodd" d="M14.2871 19.4723C14.4841 19.7927 14.7937 20.0001 15.1783 20.0001C15.8256 20.0001 16.3884 19.4534 16.4353 18.7654C16.3884 19.4534 16.895 20.0001 17.5423 20.0001C18.1895 20.0001 18.7243 19.4534 18.7243 18.7654C18.7243 19.4534 19.2308 20.0001 19.8781 20.0001C20.5254 20.0001 21.032 19.4534 21.032 18.7654C21.032 19.4534 21.5854 20.0001 22.2421 20.0001C22.8987 20.0001 23.3772 19.4534 23.3303 18.7654C23.3772 19.4534 23.9306 20.0001 24.5873 20.0001C24.9532 20.0001 25.2627 19.821 25.4316 19.5382V15.1367H14.2871V19.4628" fill="#7F7F7F"/>
<path fill-rule="evenodd" clip-rule="evenodd" d="M10.1785 14.5703L10.1128 16.116C10.0003 16.9737 10.5256 17.7089 11.3042 17.7089C12.0828 17.7089 12.7395 16.9737 12.8333 16.116L12.852 14.5703H10.1785Z" fill="#B3B3B3"/>
<path fill-rule="evenodd" clip-rule="evenodd" d="M12.9733 14.5703L12.9546 16.116C12.8607 16.9737 13.4236 17.7089 14.1928 17.7089C14.9621 17.7089 15.6469 16.9737 15.7125 16.116V14.5703H12.9733Z" fill="#0D975F"/>
<path fill-rule="evenodd" clip-rule="evenodd" d="M15.7884 14.5703V16.116C15.7134 16.9737 16.3325 17.7089 17.1111 17.7089C17.8897 17.7089 18.5558 16.9737 18.5745 16.116V14.5703H15.7884Z" fill="#B3B3B3"/>
<path fill-rule="evenodd" clip-rule="evenodd" d="M18.5927 14.5703V16.116C18.5646 16.9737 19.1931 17.7089 20.0092 17.7089C20.8254 17.7089 21.4257 16.9737 21.4257 16.116L21.3976 14.5703H18.5927Z" fill="#0D975F"/>
<path fill-rule="evenodd" clip-rule="evenodd" d="M21.4258 14.5703L21.4539 16.116C21.4539 16.9737 22.1106 17.7089 22.8986 17.7089C23.6866 17.7089 24.2963 16.9737 24.24 16.116L24.2119 14.5703H21.4258Z" fill="#B3B3B3"/>
<path fill-rule="evenodd" clip-rule="evenodd" d="M24.2871 14.5703L24.3059 16.116C24.3528 16.9737 25.0282 17.7089 25.8068 17.7089C26.5854 17.7089 27.1389 16.9737 27.0732 16.116L27.0263 14.5703H24.2871Z" fill="#0D975F"/>
<path fill-rule="evenodd" clip-rule="evenodd" d="M27.1393 14.5703L27.1862 16.116C27.2518 16.9737 27.9366 17.7089 28.7152 17.7089C29.4939 17.7089 29.991 16.9737 29.8785 16.116L29.8316 14.5703H27.1299" fill="#B3B3B3"/>
<path fill-rule="evenodd" clip-rule="evenodd" d="M15.1405 10H13.2456L10.2812 14.5712H13.0111L15.1405 10Z" fill="white"/>
<path fill-rule="evenodd" clip-rule="evenodd" d="M17.139 10H15.1221L12.8613 14.5712H15.76L17.139 10Z" fill="#27A870"/>
<path fill-rule="evenodd" clip-rule="evenodd" d="M19.1463 10H17.1013L15.7129 14.5712H18.696L19.1463 10Z" fill="white"/>
<path fill-rule="evenodd" clip-rule="evenodd" d="M20.9945 10H19.0057L18.5742 14.5712H21.426L20.9945 10Z" fill="#27A870"/>
<path fill-rule="evenodd" clip-rule="evenodd" d="M22.8892 10H20.8535L21.3038 14.5712H24.2869L22.8892 10Z" fill="white"/>
<path fill-rule="evenodd" clip-rule="evenodd" d="M24.8778 10H22.8516L24.2305 14.5712H27.1386L24.8778 10Z" fill="#27A870"/>
<path fill-rule="evenodd" clip-rule="evenodd" d="M26.8481 10H24.8594L27.092 14.5712H30.0001L26.8481 10Z" fill="white"/>
<path fill-rule="evenodd" clip-rule="evenodd" d="M24.0717 27.1638C23.612 25.2128 21.8578 23.752 19.7659 23.752C17.6739 23.752 15.9009 25.2128 15.4413 27.1638H15.3193V28.1912C15.3193 30.6323 17.3081 32.6304 19.7659 32.6304C22.2237 32.6304 24.1936 30.6323 24.1936 28.1912V27.1638H24.0717Z" fill="#7F7F7F"/>
<path d="M24.2022 27.5502C24.2022 30.0101 22.2229 31.9988 19.7744 31.9988C17.326 31.9988 15.3467 30.0101 15.3467 27.5502C15.3467 25.0903 17.326 23.1016 19.7744 23.1016C22.2229 23.1016 24.2022 25.0903 24.2022 27.5502Z" fill="#27A870"/>
<path d="M23.2453 27.5501C23.2453 29.4728 21.6975 31.028 19.7838 31.028C17.8701 31.028 16.3223 29.4728 16.3223 27.5501C16.3223 25.6274 17.8701 24.0723 19.7838 24.0723C21.6975 24.0723 23.2453 25.6274 23.2453 27.5501Z" fill="#E2E2E2"/>
<path d="M19.7746 27.1635C19.5682 27.1635 19.315 27.1069 19.315 26.843C19.315 26.6734 19.5307 26.5226 19.7746 26.5226C20.0185 26.5226 20.2343 26.6734 20.2343 26.843H21.0316C21.0316 26.3529 20.6752 25.9382 20.178 25.7874V25.3633H19.3806V25.7874C18.8834 25.9382 18.527 26.3529 18.527 26.843C18.527 27.3802 18.921 27.9552 19.7746 27.9552C19.9153 27.9552 20.2343 27.9835 20.2343 28.2756C20.2343 28.4453 20.0185 28.5961 19.7746 28.5961C19.5307 28.5961 19.315 28.4453 19.315 28.2756H18.5176C18.5176 28.7657 18.8741 29.1804 19.3712 29.3312V29.8496H20.1686V29.3312C20.6658 29.1804 21.0223 28.7657 21.0223 28.2756C21.0223 27.6159 20.5063 27.1635 19.7746 27.1635Z" fill="#00834F"/>
<path d="M15.3564 27.5505C15.3564 30.0105 17.3358 31.9992 19.7842 31.9992V23.1113C17.3358 23.1113 15.3564 25.1 15.3564 27.56V27.5505Z" fill="#40B27E"/>
<path d="M19.774 24.0719C17.8603 24.0719 16.3125 25.6271 16.3125 27.5498C16.3125 29.4725 17.8603 31.0276 19.774 31.0276V24.0625V24.0719Z" fill="white"/>
<path d="M19.775 27.9548V27.1537C19.5686 27.1537 19.3153 27.0972 19.3153 26.8333C19.3153 26.6636 19.5311 26.5128 19.775 26.5128V25.3535H19.381V25.7776C18.8838 25.9284 18.5273 26.3431 18.5273 26.8333C18.5273 27.3705 18.9213 27.9454 19.775 27.9454V27.9548Z" fill="#1E965F"/>
<path d="M19.7746 29.8494V28.5958C19.5307 28.5958 19.315 28.445 19.315 28.2754H18.5176C18.5176 28.7655 18.8741 29.1802 19.3712 29.331V29.8494H19.7652H19.7746Z" fill="#1E965F"/>
</g>
<defs>
<clipPath id="clip0_105_5127">
<rect width="40" height="40" fill="white"/>
</clipPath>
</defs>
</svg>
