<svg width="40" height="40" viewBox="0 0 40 40" fill="none" xmlns="http://www.w3.org/2000/svg">
<g clip-path="url(#clip0_105_5060)">
<path d="M40 20C40 8.9543 31.0457 0 20 0C8.9543 0 0 8.9543 0 20C0 31.0457 8.9543 40 20 40C31.0457 40 40 31.0457 40 20Z" fill="#E2E2E2"/>
<path d="M39.9564 21.1919C39.339 20.5745 30.6399 11.8645 30.6069 11.8424C30.5297 11.7322 30.4084 11.666 30.2761 11.666H9.72484C9.50433 11.666 9.32793 11.8424 9.32793 12.0629V25.0508C9.32793 25.0508 9.32793 25.117 9.33895 25.15H8.30257C8.13719 25.15 8.00488 25.2823 8.00488 25.4477V26.3849C8.00488 26.4951 8.07103 26.5833 8.15924 26.6385C8.18129 26.6826 20.5187 39.0089 21.4448 39.9461C31.4227 39.2294 39.372 31.2029 39.9564 21.1919Z" fill="#D0D0D0"/>
<path d="M30.2873 11.6543H9.72504C9.50583 11.6543 9.32812 11.832 9.32812 12.0512V25.0501C9.32812 25.2693 9.50583 25.447 9.72504 25.447H30.2873C30.5065 25.447 30.6842 25.2693 30.6842 25.0501V12.0512C30.6842 11.832 30.5065 11.6543 30.2873 11.6543Z" fill="#7F7F7F"/>
<path d="M29.4386 12.4922H10.5522C10.333 12.4922 10.1553 12.6699 10.1553 12.8891V23.9365C10.1553 24.1557 10.333 24.3334 10.5522 24.3334H29.4386C29.6578 24.3334 29.8355 24.1557 29.8355 23.9365V12.8891C29.8355 12.6699 29.6578 12.4922 29.4386 12.4922Z" fill="white"/>
<path d="M31.6984 25.1484H8.30257C8.13816 25.1484 8.00488 25.2817 8.00488 25.4461V26.3833C8.00488 26.5477 8.13816 26.681 8.30257 26.681H31.6984C31.8628 26.681 31.9961 26.5477 31.9961 26.3833V25.4461C31.9961 25.2817 31.8628 25.1484 31.6984 25.1484Z" fill="#B3B3B3"/>
<path d="M17.6517 25.1484H22.3374C22.3374 25.5674 21.9956 25.9202 21.5657 25.9202H18.4124C17.9934 25.9202 17.6406 25.5784 17.6406 25.1484H17.6517Z" fill="#4D4D4D"/>
<path d="M27.95 20.6074H12.0625V21.0264H27.95V20.6074Z" fill="#D0D0D0"/>
<path d="M27.95 18.9434H12.0625V19.3623H27.95V18.9434Z" fill="#D0D0D0"/>
<path d="M27.95 17.2676H12.0625V17.6865H27.95V17.2676Z" fill="#D0D0D0"/>
<path d="M27.95 15.6016H12.0625V16.0205H27.95V15.6016Z" fill="#D0D0D0"/>
<path d="M28.148 22.6916H11.8525V13.9375H28.159V22.6916H28.148ZM12.2605 22.2727H27.7291V14.3454H12.2605V22.2727Z" fill="#D0D0D0"/>
<path d="M26.7809 21.2469L24.8073 18.3913L23.385 20.1664L20.1767 15.4255L18.2031 18.3693L17.1447 16.8478L14.6309 20.42L13.3961 18.8764L12.2053 20.2105C12.1282 20.2987 11.9958 20.2987 11.9076 20.2326C11.8194 20.1554 11.8084 20.0231 11.8856 19.9349L13.4071 18.2259L14.5978 19.7254L17.1337 16.1201L18.1921 17.6306L20.1767 14.6758L23.4071 19.4608L24.8183 17.6857L26.8029 20.5633L27.7731 19.4387C27.8503 19.3505 27.9826 19.3395 28.0708 19.4167C28.159 19.4939 28.17 19.6262 28.0929 19.7144L26.7698 21.2469H26.7809Z" fill="#00834F"/>
</g>
<defs>
<clipPath id="clip0_105_5060">
<rect width="40" height="40" fill="white"/>
</clipPath>
</defs>
</svg>
