<svg width="40" height="40" viewBox="0 0 40 40" fill="none" xmlns="http://www.w3.org/2000/svg">
<g clip-path="url(#clip0_105_5107)">
<path d="M19.9947 39.9894C31.0375 39.9894 39.9894 31.0375 39.9894 19.9947C39.9894 8.95193 31.0375 0 19.9947 0C8.95193 0 0 8.95193 0 19.9947C0 31.0375 8.95193 39.9894 19.9947 39.9894Z" fill="#E2E2E2"/>
<path d="M36.404 17.6602H3.5957L25.977 39.0868C33.7734 36.6472 39.5013 29.5509 39.9468 21.0545L36.404 17.6602Z" fill="#D0D0D0"/>
<path d="M27.0273 23.9199H12.9727V25.6807H27.0273V23.9199Z" fill="#0D975F"/>
<path d="M27.0273 18.4688H12.9727V23.9209H27.0273V18.4688Z" fill="#00834F"/>
<path d="M27.0271 25.6819C27.0271 27.0714 23.8768 28.1958 19.9945 28.1958C16.1123 28.1958 12.9619 27.0714 12.9619 25.6819C12.9619 24.2923 16.1123 23.168 19.9945 23.168C23.8768 23.168 27.0271 24.2923 27.0271 25.6819Z" fill="#0D975F"/>
<path d="M27.0271 23.9202C27.0271 25.3097 23.8768 26.4341 19.9945 26.4341C16.1123 26.4341 12.9619 25.3097 12.9619 23.9202C12.9619 22.5306 16.1123 21.4062 19.9945 21.4062C23.8768 21.4062 27.0271 22.5306 27.0271 23.9202Z" fill="#00834F"/>
<path d="M3.5957 17.6619L19.9945 23.5171L36.404 17.6619L19.9945 11.8066L3.5957 17.6619Z" fill="#0D975F"/>
<path d="M27.6211 20.8012V28.1945L28.2045 27.399L28.7879 27.7702V20.377L27.6211 20.8012Z" fill="white"/>
<path d="M27.6216 20.802L19.3691 17.8531L20.5465 17.4395L28.7884 20.3777L27.6216 20.802Z" fill="white"/>
<path d="M21.076 17.6612C21.076 17.8733 20.5881 18.043 19.9941 18.043C19.4 18.043 18.9121 17.8733 18.9121 17.6612C18.9121 17.449 19.4 17.2793 19.9941 17.2793C20.5881 17.2793 21.076 17.449 21.076 17.6612Z" fill="#00834F"/>
</g>
<defs>
<clipPath id="clip0_105_5107">
<rect width="40" height="40" fill="white"/>
</clipPath>
</defs>
</svg>
