<svg width="40" height="40" viewBox="0 0 40 40" fill="none" xmlns="http://www.w3.org/2000/svg">
<g clip-path="url(#clip0_105_5087)">
<path d="M20.0061 40.0122C31.0552 40.0122 40.0122 31.0552 40.0122 20.0061C40.0122 8.95704 31.0552 0 20.0061 0C8.95704 0 0 8.95704 0 20.0061C0 31.0552 8.95704 40.0122 20.0061 40.0122Z" fill="#E2E2E2"/>
<path d="M8.68242 13.451L11.9475 11.6778L14.7112 11.5189L18.4776 15.2853L18.8445 10.993L20.8989 9.43999L22.672 8.58398L31.0854 16.9973L30.8041 13.7323L30.853 10.7118L39.9878 19.8466C39.9878 19.8466 39.9878 19.9444 39.9878 19.9933C39.9878 29.6173 33.1765 37.6638 24.115 39.5714L16.2642 31.7206L15.4938 29.8986L6.86035 21.2651L8.6702 18.5259V13.451H8.68242Z" fill="#D0D0D0"/>
<path d="M30.963 19.0759C31.7334 16.0921 31.3054 12.4602 31.073 11.3107C30.7429 9.64761 28.7863 9.03618 28.7007 9.01172L28.4316 9.87995L28.5662 9.43972L28.4316 9.87995C28.4316 9.87995 29.9602 10.3691 30.1803 11.4941C30.3882 12.5091 30.804 16.0432 30.0825 18.8558L30.963 19.0881V19.0759Z" fill="white"/>
<path d="M18.5141 19.0759C17.7437 16.0921 18.1717 12.4602 18.4041 11.3107C18.7342 9.64761 20.6908 9.03618 20.7764 9.01172L21.0455 9.87995L20.911 9.43972L21.0455 9.87995C21.0455 9.87995 19.5169 10.3691 19.2968 11.4941C19.0889 12.5091 18.6731 16.0432 19.3946 18.8558L18.5141 19.0881V19.0759Z" fill="white"/>
<path d="M27.03 9.81546L28.0719 10.24C28.4534 10.3955 28.8887 10.2122 29.0442 9.83068L29.2011 9.44565C29.3565 9.06413 29.1733 8.62882 28.7918 8.47336L27.7499 8.04882C27.3684 7.89336 26.9331 8.07661 26.7776 8.45813L26.6207 8.84317C26.4653 9.22469 26.6485 9.65999 27.03 9.81546Z" fill="#CDCDCE"/>
<path d="M21.6555 8.06546L20.6137 8.49C20.2321 8.64546 20.0489 9.08077 20.2043 9.46228L20.3612 9.84732C20.5167 10.2288 20.952 10.4121 21.3335 10.2566L22.3754 9.83209C22.7569 9.67663 22.9402 9.24132 22.7847 8.8598L22.6278 8.47477C22.4723 8.09325 22.037 7.90999 21.6555 8.06546Z" fill="#CDCDCE"/>
<path d="M12.2044 10.7109C14.589 10.7109 16.5334 12.6553 16.5334 15.0399L16.5089 28.149C16.5089 30.1668 18.1476 31.8054 20.1653 31.8054C22.183 31.8054 23.8217 30.1668 23.8217 28.149V24.6149C22.8311 24.4682 21.0824 23.9424 19.5539 22.0714C18.9424 21.3254 18.4655 20.3349 18.1598 19.1487L19.6272 18.7696C19.884 19.7479 20.2509 20.5306 20.7278 21.1175C22.4765 23.2453 24.4576 23.1597 24.5309 23.1597H24.8856C24.9712 23.1597 26.9522 23.2453 28.7009 21.1175C29.1778 20.5428 29.5447 19.7479 29.8015 18.7696L31.2689 19.1487C30.9632 20.3471 30.4985 21.3254 29.8749 22.0714C28.1995 24.1136 26.2674 24.5538 25.3502 24.6516V28.149C25.3502 30.9983 23.0268 33.3218 20.1775 33.3218C17.3282 33.3218 15.0048 30.9983 15.0048 28.149L15.0292 18.1827V15.0399C15.0292 13.4868 13.7697 12.2273 12.2166 12.2273C10.6636 12.2273 9.40405 13.4868 9.40405 15.0399V18.7574H7.8877V15.0399C7.8877 12.6553 9.83205 10.7109 12.2166 10.7109H12.2044Z" fill="#00834F"/>
<path d="M6.55469 19.9799C6.55469 21.166 7.50852 22.1199 8.69471 22.1199C9.88089 22.1199 10.8347 21.166 10.8347 19.9799C10.8347 18.7937 9.88089 17.8398 8.69471 17.8398C7.50852 17.8398 6.55469 18.7937 6.55469 19.9799Z" fill="white"/>
<g opacity="0.15">
<path opacity="0.15" d="M7.86269 17.9992V15.0399C7.86269 12.6553 9.80705 10.7109 12.1916 10.7109C14.5762 10.7109 16.5206 12.6553 16.5206 15.0399L16.4961 28.149C16.4961 30.1668 18.1348 31.8054 20.1525 31.8054C21.2286 31.8054 22.2069 31.3285 22.8795 30.5825V32.5391C22.0846 33.0283 21.1553 33.3218 20.1525 33.3218C17.3032 33.3218 14.9798 30.9983 14.9798 28.149L15.0042 18.1827V15.0399C15.0042 13.4868 13.7447 12.2273 12.1916 12.2273C10.6386 12.2273 9.37905 13.4868 9.37905 15.0399V17.9503C10.2228 18.2438 10.822 19.0387 10.822 19.968C10.822 21.1542 9.86819 22.1081 8.68201 22.1081C7.49583 22.1081 6.54199 21.1542 6.54199 19.968C6.54199 19.0754 7.08005 18.3172 7.86269 17.9992Z" fill="white"/>
<path opacity="0.15" d="M19.6269 18.7702C19.8837 19.7485 20.2506 20.5312 20.7275 21.1181C21.4612 22.0108 22.2316 22.5122 22.892 22.7935V24.4076C21.9259 24.1019 20.6908 23.4538 19.5536 22.0842C18.9421 21.3382 18.4652 20.3477 18.1595 19.1615L18.5141 19.0759C17.7437 16.0921 18.1717 12.4725 18.4041 11.3352C18.6242 10.2346 19.5658 9.58649 20.1895 9.28077C20.1895 8.93837 20.3973 8.6082 20.7275 8.46145L21.5346 8.13128C21.9871 7.94785 22.4885 8.16796 22.6719 8.6082L22.733 8.75494C22.9165 9.19517 22.6963 9.70878 22.2561 9.89221L21.449 10.2224C21.1433 10.3447 20.8131 10.2835 20.5808 10.0879C20.1161 10.3202 19.4435 10.7849 19.2968 11.5064C19.0889 12.5214 18.6731 16.0432 19.3946 18.8436L19.6269 18.7825V18.7702Z" fill="white"/>
</g>
</g>
<defs>
<clipPath id="clip0_105_5087">
<rect width="40" height="40" fill="white"/>
</clipPath>
</defs>
</svg>
